<mxfile host="Electron" modified="2023-10-19T15:37:24.272Z" agent="Mozilla/5.0 (Windows NT 10.0; Win64; x64) AppleWebKit/537.36 (KHTML, like Gecko) draw.io/22.0.2 Chrome/114.0.5735.289 Electron/25.8.4 Safari/537.36" etag="M6V7n0ViGz8E1DiCDR9-" version="22.0.2" type="device" pages="14">
  <diagram name="Page-1" id="UZC2AYOrptNp0i6F6UyW">
    <mxGraphModel dx="780" dy="496" grid="1" gridSize="10" guides="1" tooltips="1" connect="1" arrows="1" fold="1" page="1" pageScale="1" pageWidth="850" pageHeight="1100" math="0" shadow="0">
      <root>
        <mxCell id="0" />
        <mxCell id="1" parent="0" />
        <mxCell id="E77NYaweKE79P7mdCJcy-1" value="&lt;font style=&quot;font-size: 16px;&quot;&gt;1. Ordinograma d&#39;un programa que mostre els 20 primers nombres naturals.&lt;/font&gt;" style="rounded=0;whiteSpace=wrap;html=1;align=center;" parent="1" vertex="1">
          <mxGeometry x="50" y="20" width="710" height="40" as="geometry" />
        </mxCell>
        <mxCell id="E77NYaweKE79P7mdCJcy-5" style="edgeStyle=orthogonalEdgeStyle;rounded=0;orthogonalLoop=1;jettySize=auto;html=1;exitX=0.5;exitY=1;exitDx=0;exitDy=0;" parent="1" source="E77NYaweKE79P7mdCJcy-3" target="E77NYaweKE79P7mdCJcy-6" edge="1">
          <mxGeometry relative="1" as="geometry">
            <mxPoint x="420" y="200" as="targetPoint" />
          </mxGeometry>
        </mxCell>
        <mxCell id="E77NYaweKE79P7mdCJcy-3" value="Inici" style="rounded=1;whiteSpace=wrap;html=1;" parent="1" vertex="1">
          <mxGeometry x="370" y="110" width="100" height="40" as="geometry" />
        </mxCell>
        <mxCell id="E77NYaweKE79P7mdCJcy-8" style="edgeStyle=orthogonalEdgeStyle;rounded=0;orthogonalLoop=1;jettySize=auto;html=1;exitX=0.5;exitY=1;exitDx=0;exitDy=0;entryX=0.5;entryY=0;entryDx=0;entryDy=0;" parent="1" source="E77NYaweKE79P7mdCJcy-6" target="E77NYaweKE79P7mdCJcy-7" edge="1">
          <mxGeometry relative="1" as="geometry" />
        </mxCell>
        <mxCell id="E77NYaweKE79P7mdCJcy-6" value="x = 1" style="rounded=0;whiteSpace=wrap;html=1;" parent="1" vertex="1">
          <mxGeometry x="365" y="200" width="110" height="40" as="geometry" />
        </mxCell>
        <mxCell id="E77NYaweKE79P7mdCJcy-10" style="edgeStyle=orthogonalEdgeStyle;rounded=0;orthogonalLoop=1;jettySize=auto;html=1;exitX=0.5;exitY=1;exitDx=0;exitDy=0;entryX=0.5;entryY=0;entryDx=0;entryDy=0;" parent="1" source="E77NYaweKE79P7mdCJcy-7" target="E77NYaweKE79P7mdCJcy-9" edge="1">
          <mxGeometry relative="1" as="geometry" />
        </mxCell>
        <mxCell id="E77NYaweKE79P7mdCJcy-14" style="edgeStyle=orthogonalEdgeStyle;rounded=0;orthogonalLoop=1;jettySize=auto;html=1;exitX=1;exitY=0.5;exitDx=0;exitDy=0;" parent="1" source="E77NYaweKE79P7mdCJcy-7" target="E77NYaweKE79P7mdCJcy-15" edge="1">
          <mxGeometry relative="1" as="geometry">
            <mxPoint x="440" y="660" as="targetPoint" />
            <Array as="points">
              <mxPoint x="630" y="320" />
              <mxPoint x="630" y="600" />
              <mxPoint x="441" y="600" />
              <mxPoint x="441" y="660" />
            </Array>
          </mxGeometry>
        </mxCell>
        <mxCell id="E77NYaweKE79P7mdCJcy-7" value="x &amp;lt;= 20" style="rhombus;whiteSpace=wrap;html=1;" parent="1" vertex="1">
          <mxGeometry x="380" y="280" width="80" height="80" as="geometry" />
        </mxCell>
        <mxCell id="E77NYaweKE79P7mdCJcy-12" style="edgeStyle=orthogonalEdgeStyle;rounded=0;orthogonalLoop=1;jettySize=auto;html=1;exitX=0.5;exitY=1;exitDx=0;exitDy=0;entryX=0.5;entryY=0;entryDx=0;entryDy=0;" parent="1" source="E77NYaweKE79P7mdCJcy-9" target="E77NYaweKE79P7mdCJcy-11" edge="1">
          <mxGeometry relative="1" as="geometry" />
        </mxCell>
        <mxCell id="E77NYaweKE79P7mdCJcy-9" value="Escriu x" style="shape=parallelogram;perimeter=parallelogramPerimeter;whiteSpace=wrap;html=1;fixedSize=1;" parent="1" vertex="1">
          <mxGeometry x="363" y="400" width="115" height="50" as="geometry" />
        </mxCell>
        <mxCell id="E77NYaweKE79P7mdCJcy-13" style="edgeStyle=orthogonalEdgeStyle;rounded=0;orthogonalLoop=1;jettySize=auto;html=1;entryX=0;entryY=0.5;entryDx=0;entryDy=0;" parent="1" source="E77NYaweKE79P7mdCJcy-11" target="E77NYaweKE79P7mdCJcy-7" edge="1">
          <mxGeometry relative="1" as="geometry">
            <Array as="points">
              <mxPoint x="310" y="535" />
              <mxPoint x="310" y="320" />
            </Array>
          </mxGeometry>
        </mxCell>
        <mxCell id="E77NYaweKE79P7mdCJcy-11" value="x = x + 1" style="rounded=0;whiteSpace=wrap;html=1;" parent="1" vertex="1">
          <mxGeometry x="367.5" y="510" width="105" height="50" as="geometry" />
        </mxCell>
        <mxCell id="E77NYaweKE79P7mdCJcy-15" value="Fi" style="rounded=1;whiteSpace=wrap;html=1;" parent="1" vertex="1">
          <mxGeometry x="390" y="630" width="100" height="40" as="geometry" />
        </mxCell>
        <mxCell id="E77NYaweKE79P7mdCJcy-16" value="No" style="text;html=1;align=center;verticalAlign=middle;resizable=0;points=[];autosize=1;strokeColor=none;fillColor=none;" parent="1" vertex="1">
          <mxGeometry x="460" y="288" width="40" height="30" as="geometry" />
        </mxCell>
        <mxCell id="E77NYaweKE79P7mdCJcy-17" value="SÃ­" style="text;html=1;align=center;verticalAlign=middle;resizable=0;points=[];autosize=1;strokeColor=none;fillColor=none;" parent="1" vertex="1">
          <mxGeometry x="385" y="348" width="30" height="30" as="geometry" />
        </mxCell>
      </root>
    </mxGraphModel>
  </diagram>
  <diagram id="Q760aX0pGWIhtPSGtjtf" name="Page-2">
    <mxGraphModel dx="780" dy="496" grid="1" gridSize="10" guides="1" tooltips="1" connect="1" arrows="1" fold="1" page="1" pageScale="1" pageWidth="850" pageHeight="1100" math="0" shadow="0">
      <root>
        <mxCell id="0" />
        <mxCell id="1" parent="0" />
        <mxCell id="3hkC_bev9PHCN006Jwpd-1" value="&lt;font style=&quot;font-size: 16px;&quot;&gt;2. Ordinograma d&#39;un programa que mostre els nombres parells compresos entre 1 i 200. Comptador que suma de 2 en 2.&lt;/font&gt;" style="rounded=0;whiteSpace=wrap;html=1;align=center;" parent="1" vertex="1">
          <mxGeometry x="50" y="20" width="710" height="50" as="geometry" />
        </mxCell>
        <mxCell id="3hkC_bev9PHCN006Jwpd-6" style="edgeStyle=orthogonalEdgeStyle;rounded=0;orthogonalLoop=1;jettySize=auto;html=1;entryX=0.5;entryY=0;entryDx=0;entryDy=0;" parent="1" source="3hkC_bev9PHCN006Jwpd-2" target="3hkC_bev9PHCN006Jwpd-3" edge="1">
          <mxGeometry relative="1" as="geometry" />
        </mxCell>
        <mxCell id="3hkC_bev9PHCN006Jwpd-2" value="Inici" style="rounded=1;whiteSpace=wrap;html=1;" parent="1" vertex="1">
          <mxGeometry x="350" y="130" width="110" height="40" as="geometry" />
        </mxCell>
        <mxCell id="3hkC_bev9PHCN006Jwpd-7" style="edgeStyle=orthogonalEdgeStyle;rounded=0;orthogonalLoop=1;jettySize=auto;html=1;entryX=0.5;entryY=0;entryDx=0;entryDy=0;" parent="1" source="3hkC_bev9PHCN006Jwpd-3" target="3hkC_bev9PHCN006Jwpd-4" edge="1">
          <mxGeometry relative="1" as="geometry" />
        </mxCell>
        <mxCell id="3hkC_bev9PHCN006Jwpd-3" value="x = 2" style="rounded=0;whiteSpace=wrap;html=1;" parent="1" vertex="1">
          <mxGeometry x="350" y="210" width="110" height="40" as="geometry" />
        </mxCell>
        <mxCell id="3hkC_bev9PHCN006Jwpd-8" style="edgeStyle=orthogonalEdgeStyle;rounded=0;orthogonalLoop=1;jettySize=auto;html=1;exitX=1;exitY=0.5;exitDx=0;exitDy=0;" parent="1" source="3hkC_bev9PHCN006Jwpd-4" edge="1">
          <mxGeometry relative="1" as="geometry">
            <mxPoint x="560" y="390" as="targetPoint" />
          </mxGeometry>
        </mxCell>
        <mxCell id="3hkC_bev9PHCN006Jwpd-11" style="edgeStyle=orthogonalEdgeStyle;rounded=0;orthogonalLoop=1;jettySize=auto;html=1;exitX=0;exitY=0.5;exitDx=0;exitDy=0;" parent="1" source="3hkC_bev9PHCN006Jwpd-4" edge="1">
          <mxGeometry relative="1" as="geometry">
            <mxPoint x="380" y="500" as="targetPoint" />
            <Array as="points">
              <mxPoint x="260" y="340" />
              <mxPoint x="260" y="500" />
            </Array>
          </mxGeometry>
        </mxCell>
        <mxCell id="3hkC_bev9PHCN006Jwpd-4" value="x%2 = 0" style="rhombus;whiteSpace=wrap;html=1;" parent="1" vertex="1">
          <mxGeometry x="365" y="300" width="80" height="80" as="geometry" />
        </mxCell>
        <mxCell id="3hkC_bev9PHCN006Jwpd-12" style="edgeStyle=orthogonalEdgeStyle;rounded=0;orthogonalLoop=1;jettySize=auto;html=1;exitX=0.5;exitY=1;exitDx=0;exitDy=0;" parent="1" source="3hkC_bev9PHCN006Jwpd-10" edge="1">
          <mxGeometry relative="1" as="geometry">
            <mxPoint x="420" y="500" as="targetPoint" />
            <Array as="points">
              <mxPoint x="560" y="500" />
              <mxPoint x="440" y="500" />
            </Array>
          </mxGeometry>
        </mxCell>
        <mxCell id="3hkC_bev9PHCN006Jwpd-10" value="Escriu x" style="shape=parallelogram;perimeter=parallelogramPerimeter;whiteSpace=wrap;html=1;fixedSize=1;" parent="1" vertex="1">
          <mxGeometry x="500" y="380" width="120" height="50" as="geometry" />
        </mxCell>
        <mxCell id="3hkC_bev9PHCN006Jwpd-17" style="edgeStyle=orthogonalEdgeStyle;rounded=0;orthogonalLoop=1;jettySize=auto;html=1;exitX=0.5;exitY=1;exitDx=0;exitDy=0;" parent="1" source="3hkC_bev9PHCN006Jwpd-14" target="3hkC_bev9PHCN006Jwpd-18" edge="1">
          <mxGeometry relative="1" as="geometry">
            <mxPoint x="402.66666666666674" y="560" as="targetPoint" />
          </mxGeometry>
        </mxCell>
        <mxCell id="3hkC_bev9PHCN006Jwpd-14" value="" style="ellipse;whiteSpace=wrap;html=1;aspect=fixed;" parent="1" vertex="1">
          <mxGeometry x="382" y="480" width="40" height="40" as="geometry" />
        </mxCell>
        <mxCell id="3hkC_bev9PHCN006Jwpd-15" value="SÃ­" style="text;html=1;align=center;verticalAlign=middle;resizable=0;points=[];autosize=1;strokeColor=none;fillColor=none;" parent="1" vertex="1">
          <mxGeometry x="445" y="308" width="30" height="30" as="geometry" />
        </mxCell>
        <mxCell id="3hkC_bev9PHCN006Jwpd-16" value="No" style="text;html=1;align=center;verticalAlign=middle;resizable=0;points=[];autosize=1;strokeColor=none;fillColor=none;" parent="1" vertex="1">
          <mxGeometry x="330" y="308" width="40" height="30" as="geometry" />
        </mxCell>
        <mxCell id="3hkC_bev9PHCN006Jwpd-19" style="edgeStyle=orthogonalEdgeStyle;rounded=0;orthogonalLoop=1;jettySize=auto;html=1;exitX=0.5;exitY=1;exitDx=0;exitDy=0;" parent="1" source="3hkC_bev9PHCN006Jwpd-18" target="3hkC_bev9PHCN006Jwpd-20" edge="1">
          <mxGeometry relative="1" as="geometry">
            <mxPoint x="401.33333333333326" y="640" as="targetPoint" />
          </mxGeometry>
        </mxCell>
        <mxCell id="3hkC_bev9PHCN006Jwpd-18" value="x = x + 2" style="rounded=0;whiteSpace=wrap;html=1;" parent="1" vertex="1">
          <mxGeometry x="342" y="550" width="118" height="40" as="geometry" />
        </mxCell>
        <mxCell id="3hkC_bev9PHCN006Jwpd-24" style="edgeStyle=orthogonalEdgeStyle;rounded=0;orthogonalLoop=1;jettySize=auto;html=1;exitX=0.5;exitY=1;exitDx=0;exitDy=0;" parent="1" source="3hkC_bev9PHCN006Jwpd-20" target="3hkC_bev9PHCN006Jwpd-25" edge="1">
          <mxGeometry relative="1" as="geometry">
            <mxPoint x="402.66666666666674" y="760" as="targetPoint" />
          </mxGeometry>
        </mxCell>
        <mxCell id="3hkC_bev9PHCN006Jwpd-20" value="x&amp;lt;=200" style="rhombus;whiteSpace=wrap;html=1;" parent="1" vertex="1">
          <mxGeometry x="361.0033333333333" y="630" width="80" height="80" as="geometry" />
        </mxCell>
        <mxCell id="3hkC_bev9PHCN006Jwpd-23" style="edgeStyle=orthogonalEdgeStyle;rounded=0;orthogonalLoop=1;jettySize=auto;html=1;" parent="1" edge="1">
          <mxGeometry relative="1" as="geometry">
            <mxPoint x="392" y="280" as="targetPoint" />
            <mxPoint x="360" y="670" as="sourcePoint" />
            <Array as="points">
              <mxPoint x="200" y="670" />
              <mxPoint x="200" y="280" />
            </Array>
          </mxGeometry>
        </mxCell>
        <mxCell id="3hkC_bev9PHCN006Jwpd-25" value="Fi" style="rounded=1;whiteSpace=wrap;html=1;" parent="1" vertex="1">
          <mxGeometry x="342.67" y="750" width="117.33" height="40" as="geometry" />
        </mxCell>
        <mxCell id="3hkC_bev9PHCN006Jwpd-26" value="SÃ­" style="text;html=1;align=center;verticalAlign=middle;resizable=0;points=[];autosize=1;strokeColor=none;fillColor=none;" parent="1" vertex="1">
          <mxGeometry x="320" y="638" width="30" height="30" as="geometry" />
        </mxCell>
        <mxCell id="3hkC_bev9PHCN006Jwpd-27" value="No" style="text;html=1;align=center;verticalAlign=middle;resizable=0;points=[];autosize=1;strokeColor=none;fillColor=none;" parent="1" vertex="1">
          <mxGeometry x="405" y="698" width="40" height="30" as="geometry" />
        </mxCell>
      </root>
    </mxGraphModel>
  </diagram>
  <diagram id="kHpZ-fG4EzH3-s_95G0_" name="Page-3">
    <mxGraphModel dx="780" dy="496" grid="1" gridSize="10" guides="1" tooltips="1" connect="1" arrows="1" fold="1" page="1" pageScale="1" pageWidth="850" pageHeight="1100" math="0" shadow="0">
      <root>
        <mxCell id="0" />
        <mxCell id="1" parent="0" />
        <mxCell id="O3bBOa7NbdnkR-zjBfO7-1" value="&lt;font style=&quot;font-size: 16px;&quot;&gt;3. Ordinograma d&#39;un programa que mostre els nombres parells compresos entre 1 i 200. Comptador que suma de 1 en 1.&lt;/font&gt;" style="rounded=0;whiteSpace=wrap;html=1;align=center;" parent="1" vertex="1">
          <mxGeometry x="50" y="20" width="710" height="50" as="geometry" />
        </mxCell>
        <mxCell id="sttY6Z0NIjU2EfmGqN6C-1" style="edgeStyle=orthogonalEdgeStyle;rounded=0;orthogonalLoop=1;jettySize=auto;html=1;entryX=0.5;entryY=0;entryDx=0;entryDy=0;" parent="1" source="sttY6Z0NIjU2EfmGqN6C-2" target="sttY6Z0NIjU2EfmGqN6C-4" edge="1">
          <mxGeometry relative="1" as="geometry" />
        </mxCell>
        <mxCell id="sttY6Z0NIjU2EfmGqN6C-2" value="Inici" style="rounded=1;whiteSpace=wrap;html=1;" parent="1" vertex="1">
          <mxGeometry x="350" y="130" width="110" height="40" as="geometry" />
        </mxCell>
        <mxCell id="sttY6Z0NIjU2EfmGqN6C-3" style="edgeStyle=orthogonalEdgeStyle;rounded=0;orthogonalLoop=1;jettySize=auto;html=1;entryX=0.5;entryY=0;entryDx=0;entryDy=0;" parent="1" source="sttY6Z0NIjU2EfmGqN6C-4" target="sttY6Z0NIjU2EfmGqN6C-7" edge="1">
          <mxGeometry relative="1" as="geometry" />
        </mxCell>
        <mxCell id="sttY6Z0NIjU2EfmGqN6C-4" value="x = 1" style="rounded=0;whiteSpace=wrap;html=1;" parent="1" vertex="1">
          <mxGeometry x="350" y="210" width="110" height="40" as="geometry" />
        </mxCell>
        <mxCell id="sttY6Z0NIjU2EfmGqN6C-5" style="edgeStyle=orthogonalEdgeStyle;rounded=0;orthogonalLoop=1;jettySize=auto;html=1;exitX=1;exitY=0.5;exitDx=0;exitDy=0;" parent="1" source="sttY6Z0NIjU2EfmGqN6C-7" edge="1">
          <mxGeometry relative="1" as="geometry">
            <mxPoint x="560" y="390" as="targetPoint" />
          </mxGeometry>
        </mxCell>
        <mxCell id="sttY6Z0NIjU2EfmGqN6C-6" style="edgeStyle=orthogonalEdgeStyle;rounded=0;orthogonalLoop=1;jettySize=auto;html=1;exitX=0;exitY=0.5;exitDx=0;exitDy=0;" parent="1" source="sttY6Z0NIjU2EfmGqN6C-7" edge="1">
          <mxGeometry relative="1" as="geometry">
            <mxPoint x="380" y="500" as="targetPoint" />
            <Array as="points">
              <mxPoint x="260" y="340" />
              <mxPoint x="260" y="500" />
            </Array>
          </mxGeometry>
        </mxCell>
        <mxCell id="sttY6Z0NIjU2EfmGqN6C-7" value="x%2 = 0" style="rhombus;whiteSpace=wrap;html=1;" parent="1" vertex="1">
          <mxGeometry x="365" y="300" width="80" height="80" as="geometry" />
        </mxCell>
        <mxCell id="sttY6Z0NIjU2EfmGqN6C-8" style="edgeStyle=orthogonalEdgeStyle;rounded=0;orthogonalLoop=1;jettySize=auto;html=1;exitX=0.5;exitY=1;exitDx=0;exitDy=0;" parent="1" source="sttY6Z0NIjU2EfmGqN6C-9" edge="1">
          <mxGeometry relative="1" as="geometry">
            <mxPoint x="420" y="500" as="targetPoint" />
            <Array as="points">
              <mxPoint x="560" y="500" />
              <mxPoint x="440" y="500" />
            </Array>
          </mxGeometry>
        </mxCell>
        <mxCell id="sttY6Z0NIjU2EfmGqN6C-9" value="Escriu x" style="shape=parallelogram;perimeter=parallelogramPerimeter;whiteSpace=wrap;html=1;fixedSize=1;" parent="1" vertex="1">
          <mxGeometry x="500" y="380" width="120" height="50" as="geometry" />
        </mxCell>
        <mxCell id="sttY6Z0NIjU2EfmGqN6C-10" style="edgeStyle=orthogonalEdgeStyle;rounded=0;orthogonalLoop=1;jettySize=auto;html=1;exitX=0.5;exitY=1;exitDx=0;exitDy=0;" parent="1" source="sttY6Z0NIjU2EfmGqN6C-11" target="sttY6Z0NIjU2EfmGqN6C-15" edge="1">
          <mxGeometry relative="1" as="geometry">
            <mxPoint x="402.66666666666674" y="560" as="targetPoint" />
          </mxGeometry>
        </mxCell>
        <mxCell id="sttY6Z0NIjU2EfmGqN6C-11" value="" style="ellipse;whiteSpace=wrap;html=1;aspect=fixed;" parent="1" vertex="1">
          <mxGeometry x="382" y="480" width="40" height="40" as="geometry" />
        </mxCell>
        <mxCell id="sttY6Z0NIjU2EfmGqN6C-12" value="SÃ­" style="text;html=1;align=center;verticalAlign=middle;resizable=0;points=[];autosize=1;strokeColor=none;fillColor=none;" parent="1" vertex="1">
          <mxGeometry x="445" y="308" width="30" height="30" as="geometry" />
        </mxCell>
        <mxCell id="sttY6Z0NIjU2EfmGqN6C-13" value="No" style="text;html=1;align=center;verticalAlign=middle;resizable=0;points=[];autosize=1;strokeColor=none;fillColor=none;" parent="1" vertex="1">
          <mxGeometry x="330" y="308" width="40" height="30" as="geometry" />
        </mxCell>
        <mxCell id="sttY6Z0NIjU2EfmGqN6C-14" style="edgeStyle=orthogonalEdgeStyle;rounded=0;orthogonalLoop=1;jettySize=auto;html=1;exitX=0.5;exitY=1;exitDx=0;exitDy=0;" parent="1" source="sttY6Z0NIjU2EfmGqN6C-15" target="sttY6Z0NIjU2EfmGqN6C-17" edge="1">
          <mxGeometry relative="1" as="geometry">
            <mxPoint x="401.33333333333326" y="640" as="targetPoint" />
          </mxGeometry>
        </mxCell>
        <mxCell id="sttY6Z0NIjU2EfmGqN6C-15" value="x = x + 1" style="rounded=0;whiteSpace=wrap;html=1;" parent="1" vertex="1">
          <mxGeometry x="342" y="550" width="118" height="40" as="geometry" />
        </mxCell>
        <mxCell id="sttY6Z0NIjU2EfmGqN6C-16" style="edgeStyle=orthogonalEdgeStyle;rounded=0;orthogonalLoop=1;jettySize=auto;html=1;exitX=0.5;exitY=1;exitDx=0;exitDy=0;" parent="1" source="sttY6Z0NIjU2EfmGqN6C-17" target="sttY6Z0NIjU2EfmGqN6C-19" edge="1">
          <mxGeometry relative="1" as="geometry">
            <mxPoint x="402.66666666666674" y="760" as="targetPoint" />
          </mxGeometry>
        </mxCell>
        <mxCell id="sttY6Z0NIjU2EfmGqN6C-17" value="x&amp;lt;=200" style="rhombus;whiteSpace=wrap;html=1;" parent="1" vertex="1">
          <mxGeometry x="361.0033333333333" y="630" width="80" height="80" as="geometry" />
        </mxCell>
        <mxCell id="sttY6Z0NIjU2EfmGqN6C-18" style="edgeStyle=orthogonalEdgeStyle;rounded=0;orthogonalLoop=1;jettySize=auto;html=1;" parent="1" edge="1">
          <mxGeometry relative="1" as="geometry">
            <mxPoint x="392" y="280" as="targetPoint" />
            <mxPoint x="360" y="670" as="sourcePoint" />
            <Array as="points">
              <mxPoint x="200" y="670" />
              <mxPoint x="200" y="280" />
            </Array>
          </mxGeometry>
        </mxCell>
        <mxCell id="sttY6Z0NIjU2EfmGqN6C-19" value="Fi" style="rounded=1;whiteSpace=wrap;html=1;" parent="1" vertex="1">
          <mxGeometry x="342.67" y="750" width="117.33" height="40" as="geometry" />
        </mxCell>
        <mxCell id="sttY6Z0NIjU2EfmGqN6C-20" value="SÃ­" style="text;html=1;align=center;verticalAlign=middle;resizable=0;points=[];autosize=1;strokeColor=none;fillColor=none;" parent="1" vertex="1">
          <mxGeometry x="320" y="638" width="30" height="30" as="geometry" />
        </mxCell>
        <mxCell id="sttY6Z0NIjU2EfmGqN6C-21" value="No" style="text;html=1;align=center;verticalAlign=middle;resizable=0;points=[];autosize=1;strokeColor=none;fillColor=none;" parent="1" vertex="1">
          <mxGeometry x="405" y="698" width="40" height="30" as="geometry" />
        </mxCell>
      </root>
    </mxGraphModel>
  </diagram>
  <diagram id="LivWUFop8aEKFGCpBP6O" name="Page-4">
    <mxGraphModel dx="780" dy="496" grid="1" gridSize="10" guides="1" tooltips="1" connect="1" arrows="1" fold="1" page="1" pageScale="1" pageWidth="850" pageHeight="1100" math="0" shadow="0">
      <root>
        <mxCell id="0" />
        <mxCell id="1" parent="0" />
        <mxCell id="Jv9gq9oT4siH5ON__qIq-1" value="&lt;font style=&quot;font-size: 16px;&quot;&gt;4. Ordinograma d&#39;un programa que mostre els nÃºmeros des de l&#39;1 fins a un nÃºmero N que s&#39;introduirÃ¡ per teclat.&lt;/font&gt;" style="rounded=0;whiteSpace=wrap;html=1;align=center;" parent="1" vertex="1">
          <mxGeometry x="50" y="20" width="710" height="50" as="geometry" />
        </mxCell>
        <mxCell id="AQf5qyurV1HFet4rPzAv-1" style="edgeStyle=orthogonalEdgeStyle;rounded=0;orthogonalLoop=1;jettySize=auto;html=1;entryX=0.5;entryY=0;entryDx=0;entryDy=0;" parent="1" source="AQf5qyurV1HFet4rPzAv-2" edge="1">
          <mxGeometry relative="1" as="geometry">
            <mxPoint x="405" y="210" as="targetPoint" />
          </mxGeometry>
        </mxCell>
        <mxCell id="AQf5qyurV1HFet4rPzAv-2" value="Inici" style="rounded=1;whiteSpace=wrap;html=1;" parent="1" vertex="1">
          <mxGeometry x="350" y="130" width="110" height="40" as="geometry" />
        </mxCell>
        <mxCell id="CD7IOLQjGkMhQ6vEPv-M-2" style="edgeStyle=orthogonalEdgeStyle;rounded=0;orthogonalLoop=1;jettySize=auto;html=1;entryX=0.5;entryY=0;entryDx=0;entryDy=0;" parent="1" source="AQf5qyurV1HFet4rPzAv-3" target="CD7IOLQjGkMhQ6vEPv-M-1" edge="1">
          <mxGeometry relative="1" as="geometry" />
        </mxCell>
        <mxCell id="AQf5qyurV1HFet4rPzAv-3" value="Escriu &quot;Introdueix un nÃºmero&quot;" style="shape=parallelogram;perimeter=parallelogramPerimeter;whiteSpace=wrap;html=1;fixedSize=1;" parent="1" vertex="1">
          <mxGeometry x="310" y="210" width="190" height="50" as="geometry" />
        </mxCell>
        <mxCell id="AQf5qyurV1HFet4rPzAv-11" style="edgeStyle=orthogonalEdgeStyle;rounded=0;orthogonalLoop=1;jettySize=auto;html=1;entryX=0.5;entryY=0;entryDx=0;entryDy=0;" parent="1" source="AQf5qyurV1HFet4rPzAv-4" target="AQf5qyurV1HFet4rPzAv-6" edge="1">
          <mxGeometry relative="1" as="geometry" />
        </mxCell>
        <mxCell id="AQf5qyurV1HFet4rPzAv-4" value="x = 1" style="rounded=0;whiteSpace=wrap;html=1;" parent="1" vertex="1">
          <mxGeometry x="345" y="420" width="120" height="60" as="geometry" />
        </mxCell>
        <mxCell id="AQf5qyurV1HFet4rPzAv-14" style="edgeStyle=orthogonalEdgeStyle;rounded=0;orthogonalLoop=1;jettySize=auto;html=1;entryX=0.5;entryY=0;entryDx=0;entryDy=0;" parent="1" source="AQf5qyurV1HFet4rPzAv-6" target="AQf5qyurV1HFet4rPzAv-13" edge="1">
          <mxGeometry relative="1" as="geometry" />
        </mxCell>
        <mxCell id="AQf5qyurV1HFet4rPzAv-17" style="edgeStyle=orthogonalEdgeStyle;rounded=0;orthogonalLoop=1;jettySize=auto;html=1;exitX=1;exitY=0.5;exitDx=0;exitDy=0;" parent="1" source="AQf5qyurV1HFet4rPzAv-6" edge="1">
          <mxGeometry relative="1" as="geometry">
            <mxPoint x="430" y="950" as="targetPoint" />
            <Array as="points">
              <mxPoint x="640" y="580" />
              <mxPoint x="640" y="890" />
              <mxPoint x="430" y="890" />
            </Array>
          </mxGeometry>
        </mxCell>
        <mxCell id="AQf5qyurV1HFet4rPzAv-6" value="x &amp;lt;= nÃºmero" style="rhombus;whiteSpace=wrap;html=1;" parent="1" vertex="1">
          <mxGeometry x="360" y="540" width="90" height="80" as="geometry" />
        </mxCell>
        <mxCell id="AQf5qyurV1HFet4rPzAv-16" style="edgeStyle=orthogonalEdgeStyle;rounded=0;orthogonalLoop=1;jettySize=auto;html=1;" parent="1" source="AQf5qyurV1HFet4rPzAv-12" edge="1">
          <mxGeometry relative="1" as="geometry">
            <mxPoint x="400" y="510" as="targetPoint" />
            <Array as="points">
              <mxPoint x="210" y="810" />
              <mxPoint x="210" y="510" />
            </Array>
          </mxGeometry>
        </mxCell>
        <mxCell id="AQf5qyurV1HFet4rPzAv-12" value="x = x + 1" style="rounded=0;whiteSpace=wrap;html=1;" parent="1" vertex="1">
          <mxGeometry x="345" y="780" width="120" height="60" as="geometry" />
        </mxCell>
        <mxCell id="AQf5qyurV1HFet4rPzAv-15" style="edgeStyle=orthogonalEdgeStyle;rounded=0;orthogonalLoop=1;jettySize=auto;html=1;entryX=0.5;entryY=0;entryDx=0;entryDy=0;" parent="1" source="AQf5qyurV1HFet4rPzAv-13" target="AQf5qyurV1HFet4rPzAv-12" edge="1">
          <mxGeometry relative="1" as="geometry" />
        </mxCell>
        <mxCell id="AQf5qyurV1HFet4rPzAv-13" value="Escriu x" style="shape=parallelogram;perimeter=parallelogramPerimeter;whiteSpace=wrap;html=1;fixedSize=1;" parent="1" vertex="1">
          <mxGeometry x="345" y="670" width="120" height="60" as="geometry" />
        </mxCell>
        <mxCell id="AQf5qyurV1HFet4rPzAv-18" value="FI" style="rounded=1;whiteSpace=wrap;html=1;" parent="1" vertex="1">
          <mxGeometry x="380" y="950" width="100" height="40" as="geometry" />
        </mxCell>
        <mxCell id="AQf5qyurV1HFet4rPzAv-20" value="SÃ­" style="text;html=1;align=center;verticalAlign=middle;resizable=0;points=[];autosize=1;strokeColor=none;fillColor=none;" parent="1" vertex="1">
          <mxGeometry x="365" y="618" width="30" height="30" as="geometry" />
        </mxCell>
        <mxCell id="AQf5qyurV1HFet4rPzAv-21" value="No" style="text;html=1;align=center;verticalAlign=middle;resizable=0;points=[];autosize=1;strokeColor=none;fillColor=none;" parent="1" vertex="1">
          <mxGeometry x="450" y="540" width="40" height="30" as="geometry" />
        </mxCell>
        <mxCell id="CD7IOLQjGkMhQ6vEPv-M-3" style="edgeStyle=orthogonalEdgeStyle;rounded=0;orthogonalLoop=1;jettySize=auto;html=1;entryX=0.5;entryY=0;entryDx=0;entryDy=0;" parent="1" source="CD7IOLQjGkMhQ6vEPv-M-1" target="AQf5qyurV1HFet4rPzAv-4" edge="1">
          <mxGeometry relative="1" as="geometry" />
        </mxCell>
        <mxCell id="CD7IOLQjGkMhQ6vEPv-M-1" value="Llig nÃºmero" style="shape=parallelogram;perimeter=parallelogramPerimeter;whiteSpace=wrap;html=1;fixedSize=1;" parent="1" vertex="1">
          <mxGeometry x="345" y="310" width="120" height="60" as="geometry" />
        </mxCell>
      </root>
    </mxGraphModel>
  </diagram>
  <diagram id="zfw89js_0JoTz-3ZWpFX" name="Page-5">
    <mxGraphModel dx="780" dy="496" grid="1" gridSize="10" guides="1" tooltips="1" connect="1" arrows="1" fold="1" page="1" pageScale="1" pageWidth="850" pageHeight="1100" math="0" shadow="0">
      <root>
        <mxCell id="0" />
        <mxCell id="1" parent="0" />
        <mxCell id="rqFPw26zOO5TblJ8XDDX-1" value="&lt;font style=&quot;font-size: 16px;&quot;&gt;5. Ordinograma d&#39;un programa que llig un nÃºmero positiu i mostra la seua factorial N!..&lt;/font&gt;" style="rounded=0;whiteSpace=wrap;html=1;align=center;" parent="1" vertex="1">
          <mxGeometry x="50" y="20" width="710" height="50" as="geometry" />
        </mxCell>
        <mxCell id="rqFPw26zOO5TblJ8XDDX-4" style="edgeStyle=orthogonalEdgeStyle;rounded=0;orthogonalLoop=1;jettySize=auto;html=1;entryX=0.5;entryY=0;entryDx=0;entryDy=0;" parent="1" source="rqFPw26zOO5TblJ8XDDX-2" target="rqFPw26zOO5TblJ8XDDX-3" edge="1">
          <mxGeometry relative="1" as="geometry" />
        </mxCell>
        <mxCell id="rqFPw26zOO5TblJ8XDDX-2" value="Inici" style="rounded=1;whiteSpace=wrap;html=1;" parent="1" vertex="1">
          <mxGeometry x="340" y="130" width="120" height="40" as="geometry" />
        </mxCell>
        <mxCell id="8KkyuxwWZyBz6EoCZGf_-2" style="edgeStyle=orthogonalEdgeStyle;rounded=0;orthogonalLoop=1;jettySize=auto;html=1;entryX=0.5;entryY=0;entryDx=0;entryDy=0;" parent="1" source="rqFPw26zOO5TblJ8XDDX-3" target="8KkyuxwWZyBz6EoCZGf_-1" edge="1">
          <mxGeometry relative="1" as="geometry" />
        </mxCell>
        <mxCell id="rqFPw26zOO5TblJ8XDDX-3" value="Escriu &quot;introdueix un nÃºmero&quot;" style="shape=parallelogram;perimeter=parallelogramPerimeter;whiteSpace=wrap;html=1;fixedSize=1;" parent="1" vertex="1">
          <mxGeometry x="325" y="220" width="150" height="60" as="geometry" />
        </mxCell>
        <mxCell id="8KkyuxwWZyBz6EoCZGf_-6" style="edgeStyle=orthogonalEdgeStyle;rounded=0;orthogonalLoop=1;jettySize=auto;html=1;entryX=0.5;entryY=0;entryDx=0;entryDy=0;" parent="1" source="8KkyuxwWZyBz6EoCZGf_-1" target="8KkyuxwWZyBz6EoCZGf_-5" edge="1">
          <mxGeometry relative="1" as="geometry" />
        </mxCell>
        <mxCell id="8KkyuxwWZyBz6EoCZGf_-1" value="Llig nÃºmero" style="shape=parallelogram;perimeter=parallelogramPerimeter;whiteSpace=wrap;html=1;fixedSize=1;" parent="1" vertex="1">
          <mxGeometry x="340" y="330" width="120" height="60" as="geometry" />
        </mxCell>
        <mxCell id="8KkyuxwWZyBz6EoCZGf_-7" style="edgeStyle=orthogonalEdgeStyle;rounded=0;orthogonalLoop=1;jettySize=auto;html=1;exitX=1;exitY=0.5;exitDx=0;exitDy=0;" parent="1" source="8KkyuxwWZyBz6EoCZGf_-5" edge="1">
          <mxGeometry relative="1" as="geometry">
            <mxPoint x="410" y="190" as="targetPoint" />
            <Array as="points">
              <mxPoint x="580" y="470" />
              <mxPoint x="580" y="190" />
              <mxPoint x="410" y="190" />
            </Array>
          </mxGeometry>
        </mxCell>
        <mxCell id="8KkyuxwWZyBz6EoCZGf_-10" style="edgeStyle=orthogonalEdgeStyle;rounded=0;orthogonalLoop=1;jettySize=auto;html=1;exitX=0.5;exitY=1;exitDx=0;exitDy=0;entryX=0.5;entryY=0;entryDx=0;entryDy=0;" parent="1" source="8KkyuxwWZyBz6EoCZGf_-5" target="8KkyuxwWZyBz6EoCZGf_-9" edge="1">
          <mxGeometry relative="1" as="geometry" />
        </mxCell>
        <mxCell id="8KkyuxwWZyBz6EoCZGf_-5" value="nÃºmero &amp;lt; 0" style="rhombus;whiteSpace=wrap;html=1;" parent="1" vertex="1">
          <mxGeometry x="360" y="430" width="80" height="80" as="geometry" />
        </mxCell>
        <mxCell id="8KkyuxwWZyBz6EoCZGf_-8" value="SÃ­" style="text;html=1;align=center;verticalAlign=middle;resizable=0;points=[];autosize=1;strokeColor=none;fillColor=none;" parent="1" vertex="1">
          <mxGeometry x="440" y="430" width="30" height="30" as="geometry" />
        </mxCell>
        <mxCell id="8KkyuxwWZyBz6EoCZGf_-12" style="edgeStyle=orthogonalEdgeStyle;rounded=0;orthogonalLoop=1;jettySize=auto;html=1;entryX=0.5;entryY=0;entryDx=0;entryDy=0;" parent="1" source="8KkyuxwWZyBz6EoCZGf_-9" target="8KkyuxwWZyBz6EoCZGf_-11" edge="1">
          <mxGeometry relative="1" as="geometry" />
        </mxCell>
        <mxCell id="8KkyuxwWZyBz6EoCZGf_-9" value="Factorial = nÃºmero!" style="rounded=0;whiteSpace=wrap;html=1;" parent="1" vertex="1">
          <mxGeometry x="340" y="560" width="120" height="50" as="geometry" />
        </mxCell>
        <mxCell id="8KkyuxwWZyBz6EoCZGf_-14" style="edgeStyle=orthogonalEdgeStyle;rounded=0;orthogonalLoop=1;jettySize=auto;html=1;entryX=0.5;entryY=0;entryDx=0;entryDy=0;" parent="1" source="8KkyuxwWZyBz6EoCZGf_-11" target="8KkyuxwWZyBz6EoCZGf_-13" edge="1">
          <mxGeometry relative="1" as="geometry" />
        </mxCell>
        <mxCell id="8KkyuxwWZyBz6EoCZGf_-11" value="Escriu&lt;br&gt;&quot;El factorial del nÃºmero es: &quot; + nÃºmero" style="shape=parallelogram;perimeter=parallelogramPerimeter;whiteSpace=wrap;html=1;fixedSize=1;" parent="1" vertex="1">
          <mxGeometry x="340" y="670" width="120" height="80" as="geometry" />
        </mxCell>
        <mxCell id="8KkyuxwWZyBz6EoCZGf_-13" value="Fi" style="rounded=1;whiteSpace=wrap;html=1;" parent="1" vertex="1">
          <mxGeometry x="345" y="800" width="110" height="40" as="geometry" />
        </mxCell>
        <mxCell id="8KkyuxwWZyBz6EoCZGf_-15" value="No" style="text;html=1;align=center;verticalAlign=middle;resizable=0;points=[];autosize=1;strokeColor=none;fillColor=none;" parent="1" vertex="1">
          <mxGeometry x="400" y="508" width="40" height="30" as="geometry" />
        </mxCell>
      </root>
    </mxGraphModel>
  </diagram>
  <diagram id="irYGtnnRsW3G9rbeXPCy" name="Page-6">
    <mxGraphModel dx="780" dy="496" grid="1" gridSize="10" guides="1" tooltips="1" connect="1" arrows="1" fold="1" page="1" pageScale="1" pageWidth="850" pageHeight="1100" math="0" shadow="0">
      <root>
        <mxCell id="0" />
        <mxCell id="1" parent="0" />
        <mxCell id="UXdW5EJj8UT5FzVRfkPz-1" value="&lt;font style=&quot;font-size: 16px;&quot;&gt;6. Ordinograma d&#39;un programa que llig 100 nÃºmeros no nuls i desprÃ©s mostra un missatge de si ha llegit algÃºn nÃºmero negatiu o no.&lt;/font&gt;" style="rounded=0;whiteSpace=wrap;html=1;align=center;" parent="1" vertex="1">
          <mxGeometry x="50" y="20" width="710" height="50" as="geometry" />
        </mxCell>
        <mxCell id="UXdW5EJj8UT5FzVRfkPz-11" style="edgeStyle=orthogonalEdgeStyle;rounded=0;orthogonalLoop=1;jettySize=auto;html=1;entryX=0.5;entryY=0;entryDx=0;entryDy=0;" parent="1" source="UXdW5EJj8UT5FzVRfkPz-2" target="UXdW5EJj8UT5FzVRfkPz-10" edge="1">
          <mxGeometry relative="1" as="geometry" />
        </mxCell>
        <mxCell id="UXdW5EJj8UT5FzVRfkPz-2" value="Inici" style="rounded=1;whiteSpace=wrap;html=1;" parent="1" vertex="1">
          <mxGeometry x="340" y="105" width="100" height="30" as="geometry" />
        </mxCell>
        <mxCell id="UXdW5EJj8UT5FzVRfkPz-13" style="edgeStyle=orthogonalEdgeStyle;rounded=0;orthogonalLoop=1;jettySize=auto;html=1;entryX=0.5;entryY=0;entryDx=0;entryDy=0;" parent="1" source="UXdW5EJj8UT5FzVRfkPz-3" target="UXdW5EJj8UT5FzVRfkPz-5" edge="1">
          <mxGeometry relative="1" as="geometry" />
        </mxCell>
        <mxCell id="UXdW5EJj8UT5FzVRfkPz-3" value="Cont = 0" style="rounded=0;whiteSpace=wrap;html=1;" parent="1" vertex="1">
          <mxGeometry x="335" y="285" width="110" height="30" as="geometry" />
        </mxCell>
        <mxCell id="UXdW5EJj8UT5FzVRfkPz-27" style="edgeStyle=orthogonalEdgeStyle;rounded=0;orthogonalLoop=1;jettySize=auto;html=1;entryX=0;entryY=0.5;entryDx=0;entryDy=0;" parent="1" source="UXdW5EJj8UT5FzVRfkPz-4" target="UXdW5EJj8UT5FzVRfkPz-5" edge="1">
          <mxGeometry relative="1" as="geometry">
            <Array as="points">
              <mxPoint x="140" y="829" />
              <mxPoint x="140" y="405" />
            </Array>
          </mxGeometry>
        </mxCell>
        <mxCell id="UXdW5EJj8UT5FzVRfkPz-4" value="Cont = Cont + 1" style="rounded=0;whiteSpace=wrap;html=1;" parent="1" vertex="1">
          <mxGeometry x="495" y="814" width="110" height="30" as="geometry" />
        </mxCell>
        <mxCell id="UXdW5EJj8UT5FzVRfkPz-14" style="edgeStyle=orthogonalEdgeStyle;rounded=0;orthogonalLoop=1;jettySize=auto;html=1;entryX=0.5;entryY=0;entryDx=0;entryDy=0;" parent="1" source="UXdW5EJj8UT5FzVRfkPz-5" target="UXdW5EJj8UT5FzVRfkPz-9" edge="1">
          <mxGeometry relative="1" as="geometry" />
        </mxCell>
        <mxCell id="UXdW5EJj8UT5FzVRfkPz-30" style="edgeStyle=orthogonalEdgeStyle;rounded=0;orthogonalLoop=1;jettySize=auto;html=1;exitX=1;exitY=0.5;exitDx=0;exitDy=0;entryX=0.5;entryY=0;entryDx=0;entryDy=0;" parent="1" source="UXdW5EJj8UT5FzVRfkPz-5" edge="1">
          <mxGeometry relative="1" as="geometry">
            <mxPoint x="395" y="895" as="targetPoint" />
            <Array as="points">
              <mxPoint x="720" y="405" />
              <mxPoint x="720" y="855" />
              <mxPoint x="395" y="855" />
            </Array>
          </mxGeometry>
        </mxCell>
        <mxCell id="UXdW5EJj8UT5FzVRfkPz-5" value="Cont &amp;lt;= 100" style="rhombus;whiteSpace=wrap;html=1;" parent="1" vertex="1">
          <mxGeometry x="350" y="365" width="80" height="80" as="geometry" />
        </mxCell>
        <mxCell id="UXdW5EJj8UT5FzVRfkPz-18" style="edgeStyle=orthogonalEdgeStyle;rounded=0;orthogonalLoop=1;jettySize=auto;html=1;" parent="1" source="UXdW5EJj8UT5FzVRfkPz-9" target="UXdW5EJj8UT5FzVRfkPz-16" edge="1">
          <mxGeometry relative="1" as="geometry" />
        </mxCell>
        <mxCell id="UXdW5EJj8UT5FzVRfkPz-9" value="Llig NÃºmero" style="shape=parallelogram;perimeter=parallelogramPerimeter;whiteSpace=wrap;html=1;fixedSize=1;" parent="1" vertex="1">
          <mxGeometry x="330" y="475" width="120" height="50" as="geometry" />
        </mxCell>
        <mxCell id="UXdW5EJj8UT5FzVRfkPz-12" style="edgeStyle=orthogonalEdgeStyle;rounded=0;orthogonalLoop=1;jettySize=auto;html=1;entryX=0.5;entryY=0;entryDx=0;entryDy=0;" parent="1" source="UXdW5EJj8UT5FzVRfkPz-10" target="UXdW5EJj8UT5FzVRfkPz-3" edge="1">
          <mxGeometry relative="1" as="geometry" />
        </mxCell>
        <mxCell id="UXdW5EJj8UT5FzVRfkPz-10" value="Negatiu = 0" style="rounded=0;whiteSpace=wrap;html=1;" parent="1" vertex="1">
          <mxGeometry x="335" y="197" width="110" height="30" as="geometry" />
        </mxCell>
        <mxCell id="UXdW5EJj8UT5FzVRfkPz-19" style="edgeStyle=orthogonalEdgeStyle;rounded=0;orthogonalLoop=1;jettySize=auto;html=1;exitX=0;exitY=0.5;exitDx=0;exitDy=0;" parent="1" source="UXdW5EJj8UT5FzVRfkPz-16" edge="1">
          <mxGeometry relative="1" as="geometry">
            <mxPoint x="390" y="460" as="targetPoint" />
            <Array as="points">
              <mxPoint x="240" y="605" />
              <mxPoint x="240" y="460" />
            </Array>
          </mxGeometry>
        </mxCell>
        <mxCell id="LAa0wYbbjKT9dmKueMnE-2" style="edgeStyle=orthogonalEdgeStyle;rounded=0;orthogonalLoop=1;jettySize=auto;html=1;entryX=0.5;entryY=0;entryDx=0;entryDy=0;" parent="1" source="UXdW5EJj8UT5FzVRfkPz-16" target="LAa0wYbbjKT9dmKueMnE-1" edge="1">
          <mxGeometry relative="1" as="geometry" />
        </mxCell>
        <mxCell id="UXdW5EJj8UT5FzVRfkPz-16" value="NÃºmero = 0" style="rhombus;whiteSpace=wrap;html=1;" parent="1" vertex="1">
          <mxGeometry x="345" y="564" width="90" height="80" as="geometry" />
        </mxCell>
        <mxCell id="UXdW5EJj8UT5FzVRfkPz-20" value="No" style="text;html=1;align=center;verticalAlign=middle;resizable=0;points=[];autosize=1;strokeColor=none;fillColor=none;" parent="1" vertex="1">
          <mxGeometry x="425" y="573" width="40" height="30" as="geometry" />
        </mxCell>
        <mxCell id="UXdW5EJj8UT5FzVRfkPz-22" value="SÃ­" style="text;html=1;align=center;verticalAlign=middle;resizable=0;points=[];autosize=1;strokeColor=none;fillColor=none;" parent="1" vertex="1">
          <mxGeometry x="320" y="573" width="30" height="30" as="geometry" />
        </mxCell>
        <mxCell id="LAa0wYbbjKT9dmKueMnE-7" style="edgeStyle=orthogonalEdgeStyle;rounded=0;orthogonalLoop=1;jettySize=auto;html=1;entryX=0.5;entryY=0;entryDx=0;entryDy=0;exitX=0.5;exitY=1;exitDx=0;exitDy=0;" parent="1" source="UXdW5EJj8UT5FzVRfkPz-23" target="UXdW5EJj8UT5FzVRfkPz-25" edge="1">
          <mxGeometry relative="1" as="geometry" />
        </mxCell>
        <mxCell id="UXdW5EJj8UT5FzVRfkPz-23" value="Negatiu = Negatiu + 1" style="rounded=0;whiteSpace=wrap;html=1;" parent="1" vertex="1">
          <mxGeometry x="370" y="689" width="140" height="31" as="geometry" />
        </mxCell>
        <mxCell id="UXdW5EJj8UT5FzVRfkPz-26" style="edgeStyle=orthogonalEdgeStyle;rounded=0;orthogonalLoop=1;jettySize=auto;html=1;entryX=0.5;entryY=0;entryDx=0;entryDy=0;" parent="1" source="UXdW5EJj8UT5FzVRfkPz-25" target="UXdW5EJj8UT5FzVRfkPz-4" edge="1">
          <mxGeometry relative="1" as="geometry" />
        </mxCell>
        <mxCell id="LAa0wYbbjKT9dmKueMnE-3" value="" style="edgeStyle=orthogonalEdgeStyle;rounded=0;orthogonalLoop=1;jettySize=auto;html=1;" parent="1" source="UXdW5EJj8UT5FzVRfkPz-25" target="UXdW5EJj8UT5FzVRfkPz-4" edge="1">
          <mxGeometry relative="1" as="geometry" />
        </mxCell>
        <mxCell id="UXdW5EJj8UT5FzVRfkPz-25" value="" style="ellipse;whiteSpace=wrap;html=1;aspect=fixed;" parent="1" vertex="1">
          <mxGeometry x="535" y="759" width="30" height="30" as="geometry" />
        </mxCell>
        <mxCell id="UXdW5EJj8UT5FzVRfkPz-34" style="edgeStyle=orthogonalEdgeStyle;rounded=0;orthogonalLoop=1;jettySize=auto;html=1;entryX=0.5;entryY=0;entryDx=0;entryDy=0;" parent="1" source="UXdW5EJj8UT5FzVRfkPz-32" target="UXdW5EJj8UT5FzVRfkPz-33" edge="1">
          <mxGeometry relative="1" as="geometry" />
        </mxCell>
        <mxCell id="UXdW5EJj8UT5FzVRfkPz-32" value="Escriu&lt;br&gt;&quot;S&#39;han llegit&quot; + Negatiu + &quot;nÃºmeros negatius&quot;" style="shape=parallelogram;perimeter=parallelogramPerimeter;whiteSpace=wrap;html=1;fixedSize=1;" parent="1" vertex="1">
          <mxGeometry x="290" y="895" width="210" height="50" as="geometry" />
        </mxCell>
        <mxCell id="UXdW5EJj8UT5FzVRfkPz-33" value="Fi" style="rounded=1;whiteSpace=wrap;html=1;" parent="1" vertex="1">
          <mxGeometry x="340" y="985" width="110" height="30" as="geometry" />
        </mxCell>
        <mxCell id="UXdW5EJj8UT5FzVRfkPz-35" value="No" style="text;html=1;align=center;verticalAlign=middle;resizable=0;points=[];autosize=1;strokeColor=none;fillColor=none;" parent="1" vertex="1">
          <mxGeometry x="430" y="368" width="40" height="30" as="geometry" />
        </mxCell>
        <mxCell id="LAa0wYbbjKT9dmKueMnE-5" style="edgeStyle=orthogonalEdgeStyle;rounded=0;orthogonalLoop=1;jettySize=auto;html=1;exitX=0;exitY=0.5;exitDx=0;exitDy=0;" parent="1" source="LAa0wYbbjKT9dmKueMnE-1" target="UXdW5EJj8UT5FzVRfkPz-23" edge="1">
          <mxGeometry relative="1" as="geometry" />
        </mxCell>
        <mxCell id="LAa0wYbbjKT9dmKueMnE-8" style="edgeStyle=orthogonalEdgeStyle;rounded=0;orthogonalLoop=1;jettySize=auto;html=1;exitX=1;exitY=0.5;exitDx=0;exitDy=0;entryX=1;entryY=0;entryDx=0;entryDy=0;" parent="1" source="LAa0wYbbjKT9dmKueMnE-1" target="UXdW5EJj8UT5FzVRfkPz-25" edge="1">
          <mxGeometry relative="1" as="geometry">
            <Array as="points">
              <mxPoint x="610" y="652" />
              <mxPoint x="610" y="740" />
              <mxPoint x="561" y="740" />
            </Array>
          </mxGeometry>
        </mxCell>
        <mxCell id="LAa0wYbbjKT9dmKueMnE-1" value="Num &amp;lt; 0" style="rhombus;whiteSpace=wrap;html=1;" parent="1" vertex="1">
          <mxGeometry x="510" y="624" width="80" height="56" as="geometry" />
        </mxCell>
        <mxCell id="LAa0wYbbjKT9dmKueMnE-6" value="SÃ­" style="text;html=1;align=center;verticalAlign=middle;resizable=0;points=[];autosize=1;strokeColor=none;fillColor=none;" parent="1" vertex="1">
          <mxGeometry x="480" y="624" width="30" height="30" as="geometry" />
        </mxCell>
        <mxCell id="LAa0wYbbjKT9dmKueMnE-9" value="No" style="text;html=1;align=center;verticalAlign=middle;resizable=0;points=[];autosize=1;strokeColor=none;fillColor=none;" parent="1" vertex="1">
          <mxGeometry x="580" y="621" width="40" height="30" as="geometry" />
        </mxCell>
        <mxCell id="0qoGLo0kObcylxwgMRpu-1" value="SÃ­" style="text;html=1;align=center;verticalAlign=middle;resizable=0;points=[];autosize=1;strokeColor=none;fillColor=none;" vertex="1" parent="1">
          <mxGeometry x="385" y="438" width="30" height="30" as="geometry" />
        </mxCell>
      </root>
    </mxGraphModel>
  </diagram>
  <diagram id="UKrJiqfSFAoODeU8yUKx" name="Page-7">
    <mxGraphModel dx="780" dy="496" grid="1" gridSize="10" guides="1" tooltips="1" connect="1" arrows="1" fold="1" page="1" pageScale="1" pageWidth="850" pageHeight="1100" math="0" shadow="0">
      <root>
        <mxCell id="0" />
        <mxCell id="1" parent="0" />
        <mxCell id="81UM77AXpz1BKHmxymiO-1" value="&lt;font style=&quot;font-size: 16px;&quot;&gt;7. Ordinograma d&#39;un programa que llig 100 nÃºmeros no nuls i desprÃ©s mostra un missatge de quants son positius i quants son negatius.&lt;/font&gt;" style="rounded=0;whiteSpace=wrap;html=1;align=center;" parent="1" vertex="1">
          <mxGeometry x="50" y="20" width="710" height="50" as="geometry" />
        </mxCell>
        <mxCell id="71nXBSJbEcRvXvugFE-a-1" style="edgeStyle=orthogonalEdgeStyle;rounded=0;orthogonalLoop=1;jettySize=auto;html=1;entryX=0.5;entryY=0;entryDx=0;entryDy=0;" parent="1" source="71nXBSJbEcRvXvugFE-a-2" target="71nXBSJbEcRvXvugFE-a-13" edge="1">
          <mxGeometry relative="1" as="geometry" />
        </mxCell>
        <mxCell id="71nXBSJbEcRvXvugFE-a-2" value="Inici" style="rounded=1;whiteSpace=wrap;html=1;" parent="1" vertex="1">
          <mxGeometry x="340" y="105" width="100" height="30" as="geometry" />
        </mxCell>
        <mxCell id="71nXBSJbEcRvXvugFE-a-3" style="edgeStyle=orthogonalEdgeStyle;rounded=0;orthogonalLoop=1;jettySize=auto;html=1;entryX=0.5;entryY=0;entryDx=0;entryDy=0;" parent="1" source="71nXBSJbEcRvXvugFE-a-4" target="71nXBSJbEcRvXvugFE-a-9" edge="1">
          <mxGeometry relative="1" as="geometry" />
        </mxCell>
        <mxCell id="71nXBSJbEcRvXvugFE-a-4" value="Cont = 0" style="rounded=0;whiteSpace=wrap;html=1;" parent="1" vertex="1">
          <mxGeometry x="335" y="285" width="110" height="30" as="geometry" />
        </mxCell>
        <mxCell id="71nXBSJbEcRvXvugFE-a-5" style="edgeStyle=orthogonalEdgeStyle;rounded=0;orthogonalLoop=1;jettySize=auto;html=1;entryX=0;entryY=0.5;entryDx=0;entryDy=0;" parent="1" source="71nXBSJbEcRvXvugFE-a-6" target="71nXBSJbEcRvXvugFE-a-9" edge="1">
          <mxGeometry relative="1" as="geometry">
            <Array as="points">
              <mxPoint x="140" y="830" />
              <mxPoint x="140" y="405" />
            </Array>
          </mxGeometry>
        </mxCell>
        <mxCell id="71nXBSJbEcRvXvugFE-a-6" value="Cont = Cont + 1" style="rounded=0;whiteSpace=wrap;html=1;" parent="1" vertex="1">
          <mxGeometry x="500" y="815" width="110" height="30" as="geometry" />
        </mxCell>
        <mxCell id="71nXBSJbEcRvXvugFE-a-7" style="edgeStyle=orthogonalEdgeStyle;rounded=0;orthogonalLoop=1;jettySize=auto;html=1;entryX=0.5;entryY=0;entryDx=0;entryDy=0;" parent="1" source="71nXBSJbEcRvXvugFE-a-9" target="71nXBSJbEcRvXvugFE-a-11" edge="1">
          <mxGeometry relative="1" as="geometry" />
        </mxCell>
        <mxCell id="71nXBSJbEcRvXvugFE-a-8" style="edgeStyle=orthogonalEdgeStyle;rounded=0;orthogonalLoop=1;jettySize=auto;html=1;exitX=1;exitY=0.5;exitDx=0;exitDy=0;entryX=0.5;entryY=0;entryDx=0;entryDy=0;" parent="1" source="71nXBSJbEcRvXvugFE-a-9" edge="1">
          <mxGeometry relative="1" as="geometry">
            <mxPoint x="395" y="895" as="targetPoint" />
            <Array as="points">
              <mxPoint x="720" y="405" />
              <mxPoint x="720" y="855" />
              <mxPoint x="395" y="855" />
            </Array>
          </mxGeometry>
        </mxCell>
        <mxCell id="71nXBSJbEcRvXvugFE-a-9" value="Cont &amp;lt;= 100" style="rhombus;whiteSpace=wrap;html=1;" parent="1" vertex="1">
          <mxGeometry x="350" y="365" width="80" height="80" as="geometry" />
        </mxCell>
        <mxCell id="71nXBSJbEcRvXvugFE-a-10" style="edgeStyle=orthogonalEdgeStyle;rounded=0;orthogonalLoop=1;jettySize=auto;html=1;" parent="1" source="71nXBSJbEcRvXvugFE-a-11" target="71nXBSJbEcRvXvugFE-a-16" edge="1">
          <mxGeometry relative="1" as="geometry" />
        </mxCell>
        <mxCell id="71nXBSJbEcRvXvugFE-a-11" value="Llig NÃºmero" style="shape=parallelogram;perimeter=parallelogramPerimeter;whiteSpace=wrap;html=1;fixedSize=1;" parent="1" vertex="1">
          <mxGeometry x="330" y="475" width="120" height="50" as="geometry" />
        </mxCell>
        <mxCell id="71nXBSJbEcRvXvugFE-a-12" style="edgeStyle=orthogonalEdgeStyle;rounded=0;orthogonalLoop=1;jettySize=auto;html=1;entryX=0.5;entryY=0;entryDx=0;entryDy=0;" parent="1" source="71nXBSJbEcRvXvugFE-a-13" target="71nXBSJbEcRvXvugFE-a-4" edge="1">
          <mxGeometry relative="1" as="geometry" />
        </mxCell>
        <mxCell id="71nXBSJbEcRvXvugFE-a-13" value="Negatiu = 0&lt;br&gt;Positiu = 0" style="rounded=0;whiteSpace=wrap;html=1;" parent="1" vertex="1">
          <mxGeometry x="335" y="197" width="110" height="43" as="geometry" />
        </mxCell>
        <mxCell id="71nXBSJbEcRvXvugFE-a-14" style="edgeStyle=orthogonalEdgeStyle;rounded=0;orthogonalLoop=1;jettySize=auto;html=1;exitX=0;exitY=0.5;exitDx=0;exitDy=0;" parent="1" source="71nXBSJbEcRvXvugFE-a-16" edge="1">
          <mxGeometry relative="1" as="geometry">
            <mxPoint x="389" y="450" as="targetPoint" />
            <Array as="points">
              <mxPoint x="270" y="605" />
              <mxPoint x="270" y="450" />
            </Array>
          </mxGeometry>
        </mxCell>
        <mxCell id="KM-8pqKIbFALpzaOT6UX-7" style="edgeStyle=orthogonalEdgeStyle;rounded=0;orthogonalLoop=1;jettySize=auto;html=1;entryX=0.5;entryY=0;entryDx=0;entryDy=0;" parent="1" source="71nXBSJbEcRvXvugFE-a-16" target="KM-8pqKIbFALpzaOT6UX-5" edge="1">
          <mxGeometry relative="1" as="geometry" />
        </mxCell>
        <mxCell id="71nXBSJbEcRvXvugFE-a-16" value="NÃºmero == 0" style="rhombus;whiteSpace=wrap;html=1;" parent="1" vertex="1">
          <mxGeometry x="344" y="565" width="90" height="80" as="geometry" />
        </mxCell>
        <mxCell id="71nXBSJbEcRvXvugFE-a-17" value="No" style="text;html=1;align=center;verticalAlign=middle;resizable=0;points=[];autosize=1;strokeColor=none;fillColor=none;" parent="1" vertex="1">
          <mxGeometry x="425" y="573" width="40" height="30" as="geometry" />
        </mxCell>
        <mxCell id="71nXBSJbEcRvXvugFE-a-18" value="SÃ­" style="text;html=1;align=center;verticalAlign=middle;resizable=0;points=[];autosize=1;strokeColor=none;fillColor=none;" parent="1" vertex="1">
          <mxGeometry x="320" y="573" width="30" height="30" as="geometry" />
        </mxCell>
        <mxCell id="71nXBSJbEcRvXvugFE-a-21" style="edgeStyle=orthogonalEdgeStyle;rounded=0;orthogonalLoop=1;jettySize=auto;html=1;entryX=0.5;entryY=0;entryDx=0;entryDy=0;" parent="1" source="71nXBSJbEcRvXvugFE-a-22" target="71nXBSJbEcRvXvugFE-a-6" edge="1">
          <mxGeometry relative="1" as="geometry" />
        </mxCell>
        <mxCell id="71nXBSJbEcRvXvugFE-a-22" value="" style="ellipse;whiteSpace=wrap;html=1;aspect=fixed;" parent="1" vertex="1">
          <mxGeometry x="540" y="760" width="30" height="30" as="geometry" />
        </mxCell>
        <mxCell id="71nXBSJbEcRvXvugFE-a-23" style="edgeStyle=orthogonalEdgeStyle;rounded=0;orthogonalLoop=1;jettySize=auto;html=1;entryX=0.5;entryY=0;entryDx=0;entryDy=0;" parent="1" target="71nXBSJbEcRvXvugFE-a-25" edge="1">
          <mxGeometry relative="1" as="geometry">
            <mxPoint x="395.0666666666666" y="962" as="sourcePoint" />
          </mxGeometry>
        </mxCell>
        <mxCell id="71nXBSJbEcRvXvugFE-a-24" value="Escriu&lt;br&gt;&quot;S&#39;han llegit&quot; + Negatiu + &quot;nÃºmeros negatius i &quot; + Positiu + &quot;nÃºmeros positius&quot;" style="shape=parallelogram;perimeter=parallelogramPerimeter;whiteSpace=wrap;html=1;fixedSize=1;" parent="1" vertex="1">
          <mxGeometry x="290" y="895" width="210" height="65" as="geometry" />
        </mxCell>
        <mxCell id="71nXBSJbEcRvXvugFE-a-25" value="Fi" style="rounded=1;whiteSpace=wrap;html=1;" parent="1" vertex="1">
          <mxGeometry x="340" y="987" width="110" height="30" as="geometry" />
        </mxCell>
        <mxCell id="71nXBSJbEcRvXvugFE-a-26" value="No" style="text;html=1;align=center;verticalAlign=middle;resizable=0;points=[];autosize=1;strokeColor=none;fillColor=none;" parent="1" vertex="1">
          <mxGeometry x="430" y="368" width="40" height="30" as="geometry" />
        </mxCell>
        <mxCell id="KM-8pqKIbFALpzaOT6UX-1" style="edgeStyle=orthogonalEdgeStyle;rounded=0;orthogonalLoop=1;jettySize=auto;html=1;entryX=0.5;entryY=0;entryDx=0;entryDy=0;exitX=0.5;exitY=1;exitDx=0;exitDy=0;" parent="1" source="KM-8pqKIbFALpzaOT6UX-2" edge="1">
          <mxGeometry relative="1" as="geometry">
            <mxPoint x="550" y="759" as="targetPoint" />
          </mxGeometry>
        </mxCell>
        <mxCell id="KM-8pqKIbFALpzaOT6UX-2" value="Negatiu = Negatiu + 1" style="rounded=0;whiteSpace=wrap;html=1;" parent="1" vertex="1">
          <mxGeometry x="370" y="689" width="140" height="31" as="geometry" />
        </mxCell>
        <mxCell id="KM-8pqKIbFALpzaOT6UX-3" style="edgeStyle=orthogonalEdgeStyle;rounded=0;orthogonalLoop=1;jettySize=auto;html=1;exitX=0;exitY=0.5;exitDx=0;exitDy=0;" parent="1" source="KM-8pqKIbFALpzaOT6UX-5" target="KM-8pqKIbFALpzaOT6UX-2" edge="1">
          <mxGeometry relative="1" as="geometry" />
        </mxCell>
        <mxCell id="KM-8pqKIbFALpzaOT6UX-4" style="edgeStyle=orthogonalEdgeStyle;rounded=0;orthogonalLoop=1;jettySize=auto;html=1;exitX=1;exitY=0.5;exitDx=0;exitDy=0;entryX=1;entryY=0;entryDx=0;entryDy=0;" parent="1" source="KM-8pqKIbFALpzaOT6UX-5" edge="1">
          <mxGeometry relative="1" as="geometry">
            <mxPoint x="561" y="763" as="targetPoint" />
            <Array as="points">
              <mxPoint x="610" y="652" />
              <mxPoint x="610" y="740" />
              <mxPoint x="561" y="740" />
            </Array>
          </mxGeometry>
        </mxCell>
        <mxCell id="KM-8pqKIbFALpzaOT6UX-5" value="Num &amp;lt; 0" style="rhombus;whiteSpace=wrap;html=1;" parent="1" vertex="1">
          <mxGeometry x="510" y="624" width="80" height="56" as="geometry" />
        </mxCell>
        <mxCell id="KM-8pqKIbFALpzaOT6UX-6" value="SÃ­" style="text;html=1;align=center;verticalAlign=middle;resizable=0;points=[];autosize=1;strokeColor=none;fillColor=none;" parent="1" vertex="1">
          <mxGeometry x="480" y="624" width="30" height="30" as="geometry" />
        </mxCell>
        <mxCell id="71nXBSJbEcRvXvugFE-a-27" value="Positiu = Positiu + 1" style="rounded=0;whiteSpace=wrap;html=1;" parent="1" vertex="1">
          <mxGeometry x="557" y="686.75" width="120" height="35.5" as="geometry" />
        </mxCell>
      </root>
    </mxGraphModel>
  </diagram>
  <diagram id="Tun7w6XYBb7u4XJmhDn0" name="Page-8">
    <mxGraphModel dx="780" dy="496" grid="1" gridSize="10" guides="1" tooltips="1" connect="1" arrows="1" fold="1" page="1" pageScale="1" pageWidth="850" pageHeight="1100" math="0" shadow="0">
      <root>
        <mxCell id="0" />
        <mxCell id="1" parent="0" />
        <mxCell id="tdBmaZfg9kWBj-E0kwVY-1" value="&lt;font style=&quot;font-size: 16px;&quot;&gt;8. Ordinograma d&#39;un programa que llig nÃºmeros no nuls fins que s&#39;introdueix un 0, i desprÃ©s mostre quants positius i negatius s&#39;han llegit&lt;/font&gt;" style="rounded=0;whiteSpace=wrap;html=1;align=center;" parent="1" vertex="1">
          <mxGeometry x="50" y="20" width="710" height="50" as="geometry" />
        </mxCell>
        <mxCell id="PL_6qDn6yFIjUOlsWIRn-1" style="edgeStyle=orthogonalEdgeStyle;rounded=0;orthogonalLoop=1;jettySize=auto;html=1;entryX=0.5;entryY=0;entryDx=0;entryDy=0;" parent="1" source="PL_6qDn6yFIjUOlsWIRn-2" target="PL_6qDn6yFIjUOlsWIRn-3" edge="1">
          <mxGeometry relative="1" as="geometry" />
        </mxCell>
        <mxCell id="PL_6qDn6yFIjUOlsWIRn-2" value="Inici" style="rounded=1;whiteSpace=wrap;html=1;" parent="1" vertex="1">
          <mxGeometry x="340" y="105" width="100" height="30" as="geometry" />
        </mxCell>
        <mxCell id="PL_6qDn6yFIjUOlsWIRn-5" style="edgeStyle=orthogonalEdgeStyle;rounded=0;orthogonalLoop=1;jettySize=auto;html=1;" parent="1" source="PL_6qDn6yFIjUOlsWIRn-3" target="PL_6qDn6yFIjUOlsWIRn-4" edge="1">
          <mxGeometry relative="1" as="geometry" />
        </mxCell>
        <mxCell id="PL_6qDn6yFIjUOlsWIRn-3" value="Negatiu = 0&lt;br&gt;Positiu = 0" style="rounded=0;whiteSpace=wrap;html=1;" parent="1" vertex="1">
          <mxGeometry x="335" y="197" width="110" height="43" as="geometry" />
        </mxCell>
        <mxCell id="1-fSv9CaZJ2DMaOIMhgx-2" style="edgeStyle=orthogonalEdgeStyle;rounded=0;orthogonalLoop=1;jettySize=auto;html=1;" parent="1" source="PL_6qDn6yFIjUOlsWIRn-4" target="1-fSv9CaZJ2DMaOIMhgx-1" edge="1">
          <mxGeometry relative="1" as="geometry" />
        </mxCell>
        <mxCell id="PL_6qDn6yFIjUOlsWIRn-4" value="Escriu &quot;introdueix un nÃºmero&quot;" style="shape=parallelogram;perimeter=parallelogramPerimeter;whiteSpace=wrap;html=1;fixedSize=1;" parent="1" vertex="1">
          <mxGeometry x="315" y="290" width="150" height="60" as="geometry" />
        </mxCell>
        <mxCell id="1-fSv9CaZJ2DMaOIMhgx-4" style="edgeStyle=orthogonalEdgeStyle;rounded=0;orthogonalLoop=1;jettySize=auto;html=1;entryX=0.5;entryY=0;entryDx=0;entryDy=0;" parent="1" source="1-fSv9CaZJ2DMaOIMhgx-1" target="1-fSv9CaZJ2DMaOIMhgx-3" edge="1">
          <mxGeometry relative="1" as="geometry" />
        </mxCell>
        <mxCell id="1-fSv9CaZJ2DMaOIMhgx-1" value="Llig nÃºmero" style="shape=parallelogram;perimeter=parallelogramPerimeter;whiteSpace=wrap;html=1;fixedSize=1;" parent="1" vertex="1">
          <mxGeometry x="330" y="400" width="120" height="60" as="geometry" />
        </mxCell>
        <mxCell id="EuuZvQu-M8iIEzj3uY5s-2" style="edgeStyle=orthogonalEdgeStyle;rounded=0;orthogonalLoop=1;jettySize=auto;html=1;entryX=0.5;entryY=0;entryDx=0;entryDy=0;" parent="1" source="1-fSv9CaZJ2DMaOIMhgx-3" target="jnjRnTozCuf7Tp5cp_YC-1" edge="1">
          <mxGeometry relative="1" as="geometry" />
        </mxCell>
        <mxCell id="EuuZvQu-M8iIEzj3uY5s-3" style="edgeStyle=orthogonalEdgeStyle;rounded=0;orthogonalLoop=1;jettySize=auto;html=1;entryX=0.5;entryY=0;entryDx=0;entryDy=0;" parent="1" source="1-fSv9CaZJ2DMaOIMhgx-3" target="EuuZvQu-M8iIEzj3uY5s-1" edge="1">
          <mxGeometry relative="1" as="geometry" />
        </mxCell>
        <mxCell id="1-fSv9CaZJ2DMaOIMhgx-3" value="nÃºmero &amp;lt; 0" style="rhombus;whiteSpace=wrap;html=1;" parent="1" vertex="1">
          <mxGeometry x="350" y="520" width="80" height="80" as="geometry" />
        </mxCell>
        <mxCell id="EuuZvQu-M8iIEzj3uY5s-7" style="edgeStyle=orthogonalEdgeStyle;rounded=0;orthogonalLoop=1;jettySize=auto;html=1;entryX=0;entryY=0.5;entryDx=0;entryDy=0;exitX=0.5;exitY=1;exitDx=0;exitDy=0;" parent="1" source="jnjRnTozCuf7Tp5cp_YC-1" target="EuuZvQu-M8iIEzj3uY5s-6" edge="1">
          <mxGeometry relative="1" as="geometry" />
        </mxCell>
        <mxCell id="jnjRnTozCuf7Tp5cp_YC-1" value="Negatiu = Negatiu + 1" style="rounded=0;whiteSpace=wrap;html=1;" parent="1" vertex="1">
          <mxGeometry x="170" y="630" width="140" height="31" as="geometry" />
        </mxCell>
        <mxCell id="EuuZvQu-M8iIEzj3uY5s-8" style="edgeStyle=orthogonalEdgeStyle;rounded=0;orthogonalLoop=1;jettySize=auto;html=1;entryX=1;entryY=0.5;entryDx=0;entryDy=0;exitX=0.5;exitY=1;exitDx=0;exitDy=0;" parent="1" source="EuuZvQu-M8iIEzj3uY5s-1" target="EuuZvQu-M8iIEzj3uY5s-6" edge="1">
          <mxGeometry relative="1" as="geometry" />
        </mxCell>
        <mxCell id="EuuZvQu-M8iIEzj3uY5s-1" value="Positiu = Positiu + 1" style="rounded=0;whiteSpace=wrap;html=1;" parent="1" vertex="1">
          <mxGeometry x="480" y="630" width="120" height="35.5" as="geometry" />
        </mxCell>
        <mxCell id="EuuZvQu-M8iIEzj3uY5s-4" value="SÃ­" style="text;html=1;align=center;verticalAlign=middle;resizable=0;points=[];autosize=1;strokeColor=none;fillColor=none;" parent="1" vertex="1">
          <mxGeometry x="315" y="525" width="30" height="30" as="geometry" />
        </mxCell>
        <mxCell id="EuuZvQu-M8iIEzj3uY5s-5" value="No" style="text;html=1;align=center;verticalAlign=middle;resizable=0;points=[];autosize=1;strokeColor=none;fillColor=none;" parent="1" vertex="1">
          <mxGeometry x="430" y="528" width="40" height="30" as="geometry" />
        </mxCell>
        <mxCell id="EuuZvQu-M8iIEzj3uY5s-10" style="edgeStyle=orthogonalEdgeStyle;rounded=0;orthogonalLoop=1;jettySize=auto;html=1;entryX=0.5;entryY=0;entryDx=0;entryDy=0;" parent="1" source="EuuZvQu-M8iIEzj3uY5s-6" target="EuuZvQu-M8iIEzj3uY5s-9" edge="1">
          <mxGeometry relative="1" as="geometry" />
        </mxCell>
        <mxCell id="EuuZvQu-M8iIEzj3uY5s-6" value="" style="ellipse;whiteSpace=wrap;html=1;aspect=fixed;" parent="1" vertex="1">
          <mxGeometry x="370" y="710" width="40" height="40" as="geometry" />
        </mxCell>
        <mxCell id="EuuZvQu-M8iIEzj3uY5s-11" style="edgeStyle=orthogonalEdgeStyle;rounded=0;orthogonalLoop=1;jettySize=auto;html=1;" parent="1" source="EuuZvQu-M8iIEzj3uY5s-9" edge="1">
          <mxGeometry relative="1" as="geometry">
            <mxPoint x="380" y="260" as="targetPoint" />
            <Array as="points">
              <mxPoint x="110" y="830" />
              <mxPoint x="110" y="260" />
            </Array>
          </mxGeometry>
        </mxCell>
        <mxCell id="RbF50Oy69IMz2gv5rxs0-2" style="edgeStyle=orthogonalEdgeStyle;rounded=0;orthogonalLoop=1;jettySize=auto;html=1;entryX=0.5;entryY=0;entryDx=0;entryDy=0;" parent="1" source="EuuZvQu-M8iIEzj3uY5s-9" target="RbF50Oy69IMz2gv5rxs0-1" edge="1">
          <mxGeometry relative="1" as="geometry" />
        </mxCell>
        <mxCell id="EuuZvQu-M8iIEzj3uY5s-9" value="nÃºmero &amp;lt;&amp;gt; 0" style="rhombus;whiteSpace=wrap;html=1;" parent="1" vertex="1">
          <mxGeometry x="345" y="790" width="90" height="80" as="geometry" />
        </mxCell>
        <mxCell id="EuuZvQu-M8iIEzj3uY5s-13" value="SÃ­" style="text;html=1;align=center;verticalAlign=middle;resizable=0;points=[];autosize=1;strokeColor=none;fillColor=none;" parent="1" vertex="1">
          <mxGeometry x="305" y="798" width="30" height="30" as="geometry" />
        </mxCell>
        <mxCell id="RbF50Oy69IMz2gv5rxs0-1" value="Escriu&lt;br&gt;&quot;S&#39;han llegit&quot; + Negatiu + &quot;nÃºmeros negatius i &quot; + Positiu + &quot;nÃºmeros positius&quot;" style="shape=parallelogram;perimeter=parallelogramPerimeter;whiteSpace=wrap;html=1;fixedSize=1;" parent="1" vertex="1">
          <mxGeometry x="285" y="910" width="210" height="65" as="geometry" />
        </mxCell>
        <mxCell id="w2HjOIeZF65LzratoNNu-1" style="edgeStyle=orthogonalEdgeStyle;rounded=0;orthogonalLoop=1;jettySize=auto;html=1;entryX=0.5;entryY=0;entryDx=0;entryDy=0;" parent="1" target="w2HjOIeZF65LzratoNNu-2" edge="1">
          <mxGeometry relative="1" as="geometry">
            <mxPoint x="390.0666666666666" y="975" as="sourcePoint" />
          </mxGeometry>
        </mxCell>
        <mxCell id="w2HjOIeZF65LzratoNNu-2" value="Fi" style="rounded=1;whiteSpace=wrap;html=1;" parent="1" vertex="1">
          <mxGeometry x="335" y="1000" width="110" height="30" as="geometry" />
        </mxCell>
        <mxCell id="0l8wei2aY7_xxTI6g6iP-1" value="No" style="text;html=1;align=center;verticalAlign=middle;resizable=0;points=[];autosize=1;strokeColor=none;fillColor=none;" vertex="1" parent="1">
          <mxGeometry x="390" y="858" width="40" height="30" as="geometry" />
        </mxCell>
      </root>
    </mxGraphModel>
  </diagram>
  <diagram id="cEYRhPnVGgNkJX8xAubq" name="Page-9">
    <mxGraphModel dx="780" dy="496" grid="1" gridSize="10" guides="1" tooltips="1" connect="1" arrows="1" fold="1" page="1" pageScale="1" pageWidth="850" pageHeight="1100" math="0" shadow="0">
      <root>
        <mxCell id="0" />
        <mxCell id="1" parent="0" />
        <mxCell id="rcKv5KZsUYEx6WUfmBGB-1" value="&lt;font style=&quot;font-size: 16px;&quot;&gt;9. Ordinograma d&#39;un programa que calcula i escriu la suma i el producte dels 10 primers nÃºmeros naturals.&lt;/font&gt;" style="rounded=0;whiteSpace=wrap;html=1;align=center;" parent="1" vertex="1">
          <mxGeometry x="50" y="20" width="710" height="50" as="geometry" />
        </mxCell>
        <mxCell id="d-UWKI8QmGEGf_W0RPU6-3" style="edgeStyle=orthogonalEdgeStyle;rounded=0;orthogonalLoop=1;jettySize=auto;html=1;entryX=0.5;entryY=0;entryDx=0;entryDy=0;" parent="1" source="d-UWKI8QmGEGf_W0RPU6-1" target="d-UWKI8QmGEGf_W0RPU6-2" edge="1">
          <mxGeometry relative="1" as="geometry" />
        </mxCell>
        <mxCell id="d-UWKI8QmGEGf_W0RPU6-1" value="Inici" style="rounded=1;whiteSpace=wrap;html=1;" parent="1" vertex="1">
          <mxGeometry x="340" y="105" width="100" height="30" as="geometry" />
        </mxCell>
        <mxCell id="d-UWKI8QmGEGf_W0RPU6-6" style="edgeStyle=orthogonalEdgeStyle;rounded=0;orthogonalLoop=1;jettySize=auto;html=1;entryX=0.5;entryY=0;entryDx=0;entryDy=0;" parent="1" source="d-UWKI8QmGEGf_W0RPU6-2" target="d-UWKI8QmGEGf_W0RPU6-4" edge="1">
          <mxGeometry relative="1" as="geometry" />
        </mxCell>
        <mxCell id="d-UWKI8QmGEGf_W0RPU6-2" value="Cont = 0" style="rounded=0;whiteSpace=wrap;html=1;" parent="1" vertex="1">
          <mxGeometry x="330" y="170" width="120" height="40" as="geometry" />
        </mxCell>
        <mxCell id="d-UWKI8QmGEGf_W0RPU6-7" style="edgeStyle=orthogonalEdgeStyle;rounded=0;orthogonalLoop=1;jettySize=auto;html=1;entryX=0.5;entryY=0;entryDx=0;entryDy=0;" parent="1" source="d-UWKI8QmGEGf_W0RPU6-4" target="d-UWKI8QmGEGf_W0RPU6-5" edge="1">
          <mxGeometry relative="1" as="geometry" />
        </mxCell>
        <mxCell id="d-UWKI8QmGEGf_W0RPU6-4" value="suma = 0" style="rounded=0;whiteSpace=wrap;html=1;" parent="1" vertex="1">
          <mxGeometry x="330" y="250" width="120" height="40" as="geometry" />
        </mxCell>
        <mxCell id="d-UWKI8QmGEGf_W0RPU6-9" style="edgeStyle=orthogonalEdgeStyle;rounded=0;orthogonalLoop=1;jettySize=auto;html=1;entryX=0.5;entryY=0;entryDx=0;entryDy=0;" parent="1" source="d-UWKI8QmGEGf_W0RPU6-5" target="d-UWKI8QmGEGf_W0RPU6-8" edge="1">
          <mxGeometry relative="1" as="geometry" />
        </mxCell>
        <mxCell id="d-UWKI8QmGEGf_W0RPU6-5" value="producte = 0" style="rounded=0;whiteSpace=wrap;html=1;" parent="1" vertex="1">
          <mxGeometry x="330" y="320" width="120" height="40" as="geometry" />
        </mxCell>
        <mxCell id="d-UWKI8QmGEGf_W0RPU6-12" style="edgeStyle=orthogonalEdgeStyle;rounded=0;orthogonalLoop=1;jettySize=auto;html=1;entryX=0.5;entryY=0;entryDx=0;entryDy=0;" parent="1" source="d-UWKI8QmGEGf_W0RPU6-8" target="d-UWKI8QmGEGf_W0RPU6-10" edge="1">
          <mxGeometry relative="1" as="geometry" />
        </mxCell>
        <mxCell id="d-UWKI8QmGEGf_W0RPU6-8" value="Cont &amp;lt;= 10" style="rhombus;whiteSpace=wrap;html=1;" parent="1" vertex="1">
          <mxGeometry x="350" y="410" width="80" height="80" as="geometry" />
        </mxCell>
        <mxCell id="d-UWKI8QmGEGf_W0RPU6-15" style="edgeStyle=orthogonalEdgeStyle;rounded=0;orthogonalLoop=1;jettySize=auto;html=1;entryX=0.5;entryY=0;entryDx=0;entryDy=0;" parent="1" source="d-UWKI8QmGEGf_W0RPU6-10" target="d-UWKI8QmGEGf_W0RPU6-13" edge="1">
          <mxGeometry relative="1" as="geometry" />
        </mxCell>
        <mxCell id="d-UWKI8QmGEGf_W0RPU6-10" value="suma = Cont + 1" style="rounded=0;whiteSpace=wrap;html=1;" parent="1" vertex="1">
          <mxGeometry x="330" y="530" width="120" height="40" as="geometry" />
        </mxCell>
        <mxCell id="d-UWKI8QmGEGf_W0RPU6-16" style="edgeStyle=orthogonalEdgeStyle;rounded=0;orthogonalLoop=1;jettySize=auto;html=1;entryX=0.5;entryY=0;entryDx=0;entryDy=0;" parent="1" source="d-UWKI8QmGEGf_W0RPU6-13" target="d-UWKI8QmGEGf_W0RPU6-14" edge="1">
          <mxGeometry relative="1" as="geometry" />
        </mxCell>
        <mxCell id="d-UWKI8QmGEGf_W0RPU6-13" value="producte = Cont * Cont&amp;nbsp;" style="rounded=0;whiteSpace=wrap;html=1;" parent="1" vertex="1">
          <mxGeometry x="330" y="620" width="120" height="40" as="geometry" />
        </mxCell>
        <mxCell id="d-UWKI8QmGEGf_W0RPU6-17" style="edgeStyle=orthogonalEdgeStyle;rounded=0;orthogonalLoop=1;jettySize=auto;html=1;entryX=0;entryY=0.5;entryDx=0;entryDy=0;" parent="1" source="d-UWKI8QmGEGf_W0RPU6-14" target="d-UWKI8QmGEGf_W0RPU6-8" edge="1">
          <mxGeometry relative="1" as="geometry">
            <Array as="points">
              <mxPoint x="220" y="730" />
              <mxPoint x="220" y="450" />
            </Array>
          </mxGeometry>
        </mxCell>
        <mxCell id="d-UWKI8QmGEGf_W0RPU6-19" style="edgeStyle=orthogonalEdgeStyle;rounded=0;orthogonalLoop=1;jettySize=auto;html=1;entryX=0.5;entryY=0;entryDx=0;entryDy=0;" parent="1" source="d-UWKI8QmGEGf_W0RPU6-14" target="d-UWKI8QmGEGf_W0RPU6-18" edge="1">
          <mxGeometry relative="1" as="geometry" />
        </mxCell>
        <mxCell id="d-UWKI8QmGEGf_W0RPU6-14" value="Cont = Cont + 1" style="rounded=0;whiteSpace=wrap;html=1;" parent="1" vertex="1">
          <mxGeometry x="330" y="710" width="120" height="40" as="geometry" />
        </mxCell>
        <mxCell id="d-UWKI8QmGEGf_W0RPU6-21" style="edgeStyle=orthogonalEdgeStyle;rounded=0;orthogonalLoop=1;jettySize=auto;html=1;entryX=0.5;entryY=0;entryDx=0;entryDy=0;" parent="1" source="d-UWKI8QmGEGf_W0RPU6-18" target="d-UWKI8QmGEGf_W0RPU6-20" edge="1">
          <mxGeometry relative="1" as="geometry" />
        </mxCell>
        <mxCell id="d-UWKI8QmGEGf_W0RPU6-18" value="Escriu&amp;nbsp;&lt;br&gt;&quot;La suma es: &quot; + suma&lt;br&gt;&quot;El producte es: &quot; + producte" style="shape=parallelogram;perimeter=parallelogramPerimeter;whiteSpace=wrap;html=1;fixedSize=1;" parent="1" vertex="1">
          <mxGeometry x="295" y="810" width="190" height="70" as="geometry" />
        </mxCell>
        <mxCell id="d-UWKI8QmGEGf_W0RPU6-20" value="Fi" style="rounded=1;whiteSpace=wrap;html=1;" parent="1" vertex="1">
          <mxGeometry x="340" y="930" width="100" height="30" as="geometry" />
        </mxCell>
      </root>
    </mxGraphModel>
  </diagram>
  <diagram id="MJUT4rmetiVY0XU7FlS5" name="Page-10">
    <mxGraphModel dx="1040" dy="661" grid="1" gridSize="10" guides="1" tooltips="1" connect="1" arrows="1" fold="1" page="1" pageScale="1" pageWidth="850" pageHeight="1100" math="0" shadow="0">
      <root>
        <mxCell id="0" />
        <mxCell id="1" parent="0" />
        <mxCell id="15SRiBczvjlPaLFfgVUd-1" value="&lt;font style=&quot;font-size: 16px;&quot;&gt;10. Ordinograma d&#39;un programa que llig una seqÃ¼Ã¨ncia de notes (0 a 10) que acaba amb -1 i diu si va a haver alguna nota o no amb valor 10.&lt;/font&gt;" style="rounded=0;whiteSpace=wrap;html=1;align=center;" vertex="1" parent="1">
          <mxGeometry x="50" y="20" width="710" height="50" as="geometry" />
        </mxCell>
        <mxCell id="QxZmZVYKJMnWcxpeQ_GA-1" style="edgeStyle=orthogonalEdgeStyle;rounded=0;orthogonalLoop=1;jettySize=auto;html=1;entryX=0.5;entryY=0;entryDx=0;entryDy=0;" edge="1" parent="1" source="QxZmZVYKJMnWcxpeQ_GA-2">
          <mxGeometry relative="1" as="geometry">
            <mxPoint x="390" y="170" as="targetPoint" />
          </mxGeometry>
        </mxCell>
        <mxCell id="QxZmZVYKJMnWcxpeQ_GA-2" value="Inici" style="rounded=1;whiteSpace=wrap;html=1;" vertex="1" parent="1">
          <mxGeometry x="340" y="105" width="100" height="30" as="geometry" />
        </mxCell>
        <mxCell id="QxZmZVYKJMnWcxpeQ_GA-5" style="edgeStyle=orthogonalEdgeStyle;rounded=0;orthogonalLoop=1;jettySize=auto;html=1;" edge="1" parent="1" source="QxZmZVYKJMnWcxpeQ_GA-3">
          <mxGeometry relative="1" as="geometry">
            <mxPoint x="390" y="360" as="targetPoint" />
          </mxGeometry>
        </mxCell>
        <mxCell id="QxZmZVYKJMnWcxpeQ_GA-3" value="Llig nota" style="shape=parallelogram;perimeter=parallelogramPerimeter;whiteSpace=wrap;html=1;fixedSize=1;" vertex="1" parent="1">
          <mxGeometry x="330" y="260" width="120" height="50" as="geometry" />
        </mxCell>
        <mxCell id="QxZmZVYKJMnWcxpeQ_GA-7" style="edgeStyle=orthogonalEdgeStyle;rounded=0;orthogonalLoop=1;jettySize=auto;html=1;entryX=0.5;entryY=0;entryDx=0;entryDy=0;" edge="1" parent="1" source="QxZmZVYKJMnWcxpeQ_GA-6" target="QxZmZVYKJMnWcxpeQ_GA-3">
          <mxGeometry relative="1" as="geometry" />
        </mxCell>
        <mxCell id="QxZmZVYKJMnWcxpeQ_GA-6" value="Cont = 0" style="rounded=0;whiteSpace=wrap;html=1;" vertex="1" parent="1">
          <mxGeometry x="330" y="169" width="120" height="40" as="geometry" />
        </mxCell>
        <mxCell id="QxZmZVYKJMnWcxpeQ_GA-11" style="edgeStyle=orthogonalEdgeStyle;rounded=0;orthogonalLoop=1;jettySize=auto;html=1;exitX=1;exitY=0.5;exitDx=0;exitDy=0;entryX=0.5;entryY=0;entryDx=0;entryDy=0;" edge="1" parent="1" source="QxZmZVYKJMnWcxpeQ_GA-8" target="QxZmZVYKJMnWcxpeQ_GA-10">
          <mxGeometry relative="1" as="geometry" />
        </mxCell>
        <mxCell id="QxZmZVYKJMnWcxpeQ_GA-14" style="edgeStyle=orthogonalEdgeStyle;rounded=0;orthogonalLoop=1;jettySize=auto;html=1;entryX=0;entryY=0.5;entryDx=0;entryDy=0;" edge="1" parent="1" source="QxZmZVYKJMnWcxpeQ_GA-8" target="QxZmZVYKJMnWcxpeQ_GA-12">
          <mxGeometry relative="1" as="geometry">
            <Array as="points">
              <mxPoint x="280" y="400" />
              <mxPoint x="280" y="580" />
            </Array>
          </mxGeometry>
        </mxCell>
        <mxCell id="QxZmZVYKJMnWcxpeQ_GA-8" value="nota = 10" style="rhombus;whiteSpace=wrap;html=1;" vertex="1" parent="1">
          <mxGeometry x="350" y="360" width="80" height="80" as="geometry" />
        </mxCell>
        <mxCell id="QxZmZVYKJMnWcxpeQ_GA-13" style="edgeStyle=orthogonalEdgeStyle;rounded=0;orthogonalLoop=1;jettySize=auto;html=1;entryX=1;entryY=0.5;entryDx=0;entryDy=0;" edge="1" parent="1" source="QxZmZVYKJMnWcxpeQ_GA-10" target="QxZmZVYKJMnWcxpeQ_GA-12">
          <mxGeometry relative="1" as="geometry">
            <mxPoint x="430" y="590" as="targetPoint" />
            <Array as="points">
              <mxPoint x="495" y="580" />
            </Array>
          </mxGeometry>
        </mxCell>
        <mxCell id="QxZmZVYKJMnWcxpeQ_GA-10" value="Cont = Cont + 1" style="rounded=0;whiteSpace=wrap;html=1;" vertex="1" parent="1">
          <mxGeometry x="440" y="480" width="110" height="40" as="geometry" />
        </mxCell>
        <mxCell id="aEXtkx-2ML2BDa0OcoRb-1" style="edgeStyle=orthogonalEdgeStyle;rounded=0;orthogonalLoop=1;jettySize=auto;html=1;entryX=0.5;entryY=0;entryDx=0;entryDy=0;" edge="1" parent="1" source="QxZmZVYKJMnWcxpeQ_GA-12" target="KmrR3nNpHbY_r2cwq9O5-1">
          <mxGeometry relative="1" as="geometry" />
        </mxCell>
        <mxCell id="QxZmZVYKJMnWcxpeQ_GA-12" value="" style="ellipse;whiteSpace=wrap;html=1;aspect=fixed;" vertex="1" parent="1">
          <mxGeometry x="370" y="560" width="40" height="40" as="geometry" />
        </mxCell>
        <mxCell id="QxZmZVYKJMnWcxpeQ_GA-16" value="SÃ­" style="text;html=1;align=center;verticalAlign=middle;resizable=0;points=[];autosize=1;strokeColor=none;fillColor=none;" vertex="1" parent="1">
          <mxGeometry x="432" y="370" width="30" height="30" as="geometry" />
        </mxCell>
        <mxCell id="QxZmZVYKJMnWcxpeQ_GA-17" value="No" style="text;html=1;align=center;verticalAlign=middle;resizable=0;points=[];autosize=1;strokeColor=none;fillColor=none;" vertex="1" parent="1">
          <mxGeometry x="310" y="368" width="40" height="30" as="geometry" />
        </mxCell>
        <mxCell id="aEXtkx-2ML2BDa0OcoRb-2" style="edgeStyle=orthogonalEdgeStyle;rounded=0;orthogonalLoop=1;jettySize=auto;html=1;" edge="1" parent="1" source="KmrR3nNpHbY_r2cwq9O5-1">
          <mxGeometry relative="1" as="geometry">
            <mxPoint x="380" y="230" as="targetPoint" />
            <Array as="points">
              <mxPoint x="170" y="700" />
              <mxPoint x="170" y="230" />
            </Array>
          </mxGeometry>
        </mxCell>
        <mxCell id="aEXtkx-2ML2BDa0OcoRb-5" style="edgeStyle=orthogonalEdgeStyle;rounded=0;orthogonalLoop=1;jettySize=auto;html=1;entryX=0.5;entryY=0;entryDx=0;entryDy=0;" edge="1" parent="1" source="KmrR3nNpHbY_r2cwq9O5-1" target="aEXtkx-2ML2BDa0OcoRb-4">
          <mxGeometry relative="1" as="geometry" />
        </mxCell>
        <mxCell id="KmrR3nNpHbY_r2cwq9O5-1" value="nota &amp;lt;&amp;gt; -1" style="rhombus;whiteSpace=wrap;html=1;" vertex="1" parent="1">
          <mxGeometry x="350" y="660" width="80" height="80" as="geometry" />
        </mxCell>
        <mxCell id="aEXtkx-2ML2BDa0OcoRb-3" value="sÃ­" style="text;html=1;align=center;verticalAlign=middle;resizable=0;points=[];autosize=1;strokeColor=none;fillColor=none;" vertex="1" parent="1">
          <mxGeometry x="315" y="668" width="30" height="30" as="geometry" />
        </mxCell>
        <mxCell id="CMh4FvwP1FchF4zJ5D8V-2" style="edgeStyle=orthogonalEdgeStyle;rounded=0;orthogonalLoop=1;jettySize=auto;html=1;entryX=0.5;entryY=0;entryDx=0;entryDy=0;" edge="1" parent="1" source="aEXtkx-2ML2BDa0OcoRb-4" target="CMh4FvwP1FchF4zJ5D8V-1">
          <mxGeometry relative="1" as="geometry" />
        </mxCell>
        <mxCell id="aEXtkx-2ML2BDa0OcoRb-4" value="Escriu&lt;br&gt;&quot;Hi ha&quot; + Cont + &quot;notes amb valor 10&quot;" style="shape=parallelogram;perimeter=parallelogramPerimeter;whiteSpace=wrap;html=1;fixedSize=1;" vertex="1" parent="1">
          <mxGeometry x="300" y="780" width="180" height="60" as="geometry" />
        </mxCell>
        <mxCell id="CMh4FvwP1FchF4zJ5D8V-1" value="Fi" style="rounded=1;whiteSpace=wrap;html=1;" vertex="1" parent="1">
          <mxGeometry x="340" y="910" width="100" height="30" as="geometry" />
        </mxCell>
      </root>
    </mxGraphModel>
  </diagram>
  <diagram id="d8lS2mgYrzMhaNcJwbGf" name="Page-11">
    <mxGraphModel dx="1040" dy="661" grid="1" gridSize="10" guides="1" tooltips="1" connect="1" arrows="1" fold="1" page="1" pageScale="1" pageWidth="850" pageHeight="1100" math="0" shadow="0">
      <root>
        <mxCell id="0" />
        <mxCell id="1" parent="0" />
        <mxCell id="5zq-1ZIIRlAJYoznJFOP-1" value="&lt;font style=&quot;font-size: 16px;&quot;&gt;11. Ordinograma d&#39;un programa que suma independentment els parells i imparells compresos entre 100 i 200 i mostra les dues sumes en pantalla.&lt;/font&gt;" style="rounded=0;whiteSpace=wrap;html=1;align=center;" vertex="1" parent="1">
          <mxGeometry x="50" y="20" width="710" height="50" as="geometry" />
        </mxCell>
        <mxCell id="XeAnhL3ull4YTwv6y5cZ-1" style="edgeStyle=orthogonalEdgeStyle;rounded=0;orthogonalLoop=1;jettySize=auto;html=1;entryX=0.5;entryY=0;entryDx=0;entryDy=0;" edge="1" parent="1" source="XeAnhL3ull4YTwv6y5cZ-2">
          <mxGeometry relative="1" as="geometry">
            <mxPoint x="390" y="156" as="targetPoint" />
          </mxGeometry>
        </mxCell>
        <mxCell id="XeAnhL3ull4YTwv6y5cZ-2" value="Inici" style="rounded=1;whiteSpace=wrap;html=1;" vertex="1" parent="1">
          <mxGeometry x="340" y="91" width="100" height="30" as="geometry" />
        </mxCell>
        <mxCell id="XwbMIS1E7frZYYk09Ymr-3" style="edgeStyle=orthogonalEdgeStyle;rounded=0;orthogonalLoop=1;jettySize=auto;html=1;entryX=0.5;entryY=0;entryDx=0;entryDy=0;" edge="1" parent="1" source="XwbMIS1E7frZYYk09Ymr-1" target="XwbMIS1E7frZYYk09Ymr-2">
          <mxGeometry relative="1" as="geometry" />
        </mxCell>
        <mxCell id="XwbMIS1E7frZYYk09Ymr-1" value="par = 0" style="rounded=0;whiteSpace=wrap;html=1;" vertex="1" parent="1">
          <mxGeometry x="330" y="156" width="120" height="40" as="geometry" />
        </mxCell>
        <mxCell id="XwbMIS1E7frZYYk09Ymr-5" style="edgeStyle=orthogonalEdgeStyle;rounded=0;orthogonalLoop=1;jettySize=auto;html=1;entryX=0.5;entryY=0;entryDx=0;entryDy=0;" edge="1" parent="1" source="XwbMIS1E7frZYYk09Ymr-2" target="XwbMIS1E7frZYYk09Ymr-4">
          <mxGeometry relative="1" as="geometry" />
        </mxCell>
        <mxCell id="XwbMIS1E7frZYYk09Ymr-2" value="impar = 0" style="rounded=0;whiteSpace=wrap;html=1;" vertex="1" parent="1">
          <mxGeometry x="330" y="236" width="120" height="40" as="geometry" />
        </mxCell>
        <mxCell id="XwbMIS1E7frZYYk09Ymr-7" style="edgeStyle=orthogonalEdgeStyle;rounded=0;orthogonalLoop=1;jettySize=auto;html=1;entryX=0.5;entryY=0;entryDx=0;entryDy=0;" edge="1" parent="1" source="XwbMIS1E7frZYYk09Ymr-4" target="XwbMIS1E7frZYYk09Ymr-6">
          <mxGeometry relative="1" as="geometry" />
        </mxCell>
        <mxCell id="XwbMIS1E7frZYYk09Ymr-4" value="x = 100" style="rounded=0;whiteSpace=wrap;html=1;" vertex="1" parent="1">
          <mxGeometry x="330" y="326" width="120" height="40" as="geometry" />
        </mxCell>
        <mxCell id="XwbMIS1E7frZYYk09Ymr-9" style="edgeStyle=orthogonalEdgeStyle;rounded=0;orthogonalLoop=1;jettySize=auto;html=1;entryX=0.5;entryY=0;entryDx=0;entryDy=0;" edge="1" parent="1" source="XwbMIS1E7frZYYk09Ymr-6" target="XwbMIS1E7frZYYk09Ymr-8">
          <mxGeometry relative="1" as="geometry" />
        </mxCell>
        <mxCell id="XwbMIS1E7frZYYk09Ymr-6" value="Llig x" style="shape=parallelogram;perimeter=parallelogramPerimeter;whiteSpace=wrap;html=1;fixedSize=1;" vertex="1" parent="1">
          <mxGeometry x="330" y="416" width="120" height="30" as="geometry" />
        </mxCell>
        <mxCell id="XwbMIS1E7frZYYk09Ymr-12" style="edgeStyle=orthogonalEdgeStyle;rounded=0;orthogonalLoop=1;jettySize=auto;html=1;entryX=0.5;entryY=0;entryDx=0;entryDy=0;" edge="1" parent="1" source="XwbMIS1E7frZYYk09Ymr-8" target="XwbMIS1E7frZYYk09Ymr-11">
          <mxGeometry relative="1" as="geometry" />
        </mxCell>
        <mxCell id="XwbMIS1E7frZYYk09Ymr-13" style="edgeStyle=orthogonalEdgeStyle;rounded=0;orthogonalLoop=1;jettySize=auto;html=1;entryX=0.5;entryY=0;entryDx=0;entryDy=0;" edge="1" parent="1" source="XwbMIS1E7frZYYk09Ymr-8" target="XwbMIS1E7frZYYk09Ymr-10">
          <mxGeometry relative="1" as="geometry" />
        </mxCell>
        <mxCell id="XwbMIS1E7frZYYk09Ymr-8" value="x%2 = 0" style="rhombus;whiteSpace=wrap;html=1;" vertex="1" parent="1">
          <mxGeometry x="350" y="486" width="80" height="80" as="geometry" />
        </mxCell>
        <mxCell id="XwbMIS1E7frZYYk09Ymr-16" style="edgeStyle=orthogonalEdgeStyle;rounded=0;orthogonalLoop=1;jettySize=auto;html=1;entryX=1;entryY=0.5;entryDx=0;entryDy=0;" edge="1" parent="1" source="XwbMIS1E7frZYYk09Ymr-10" target="XwbMIS1E7frZYYk09Ymr-14">
          <mxGeometry relative="1" as="geometry">
            <Array as="points">
              <mxPoint x="520" y="686" />
            </Array>
          </mxGeometry>
        </mxCell>
        <mxCell id="XwbMIS1E7frZYYk09Ymr-10" value="par = par + x" style="rounded=0;whiteSpace=wrap;html=1;" vertex="1" parent="1">
          <mxGeometry x="460" y="596" width="120" height="40" as="geometry" />
        </mxCell>
        <mxCell id="XwbMIS1E7frZYYk09Ymr-11" value="impar = impar + x" style="rounded=0;whiteSpace=wrap;html=1;" vertex="1" parent="1">
          <mxGeometry x="200" y="596" width="120" height="40" as="geometry" />
        </mxCell>
        <mxCell id="XwbMIS1E7frZYYk09Ymr-18" style="edgeStyle=orthogonalEdgeStyle;rounded=0;orthogonalLoop=1;jettySize=auto;html=1;entryX=0.5;entryY=0;entryDx=0;entryDy=0;" edge="1" parent="1" source="XwbMIS1E7frZYYk09Ymr-14" target="XwbMIS1E7frZYYk09Ymr-17">
          <mxGeometry relative="1" as="geometry" />
        </mxCell>
        <mxCell id="XwbMIS1E7frZYYk09Ymr-14" value="" style="ellipse;whiteSpace=wrap;html=1;aspect=fixed;" vertex="1" parent="1">
          <mxGeometry x="370" y="666" width="40" height="40" as="geometry" />
        </mxCell>
        <mxCell id="XwbMIS1E7frZYYk09Ymr-15" style="edgeStyle=orthogonalEdgeStyle;rounded=0;orthogonalLoop=1;jettySize=auto;html=1;exitX=0.5;exitY=1;exitDx=0;exitDy=0;" edge="1" parent="1" source="XwbMIS1E7frZYYk09Ymr-11">
          <mxGeometry relative="1" as="geometry">
            <mxPoint x="365" y="686" as="targetPoint" />
            <Array as="points">
              <mxPoint x="260" y="686" />
              <mxPoint x="365" y="686" />
            </Array>
          </mxGeometry>
        </mxCell>
        <mxCell id="XwbMIS1E7frZYYk09Ymr-20" style="edgeStyle=orthogonalEdgeStyle;rounded=0;orthogonalLoop=1;jettySize=auto;html=1;entryX=0.5;entryY=0;entryDx=0;entryDy=0;" edge="1" parent="1" source="XwbMIS1E7frZYYk09Ymr-17" target="XwbMIS1E7frZYYk09Ymr-19">
          <mxGeometry relative="1" as="geometry" />
        </mxCell>
        <mxCell id="XwbMIS1E7frZYYk09Ymr-17" value="x = x + 1" style="rounded=0;whiteSpace=wrap;html=1;" vertex="1" parent="1">
          <mxGeometry x="330" y="740" width="120" height="40" as="geometry" />
        </mxCell>
        <mxCell id="XwbMIS1E7frZYYk09Ymr-21" style="edgeStyle=orthogonalEdgeStyle;rounded=0;orthogonalLoop=1;jettySize=auto;html=1;" edge="1" parent="1" source="XwbMIS1E7frZYYk09Ymr-19">
          <mxGeometry relative="1" as="geometry">
            <mxPoint x="380" y="386" as="targetPoint" />
            <Array as="points">
              <mxPoint x="130" y="850" />
              <mxPoint x="130" y="386" />
            </Array>
          </mxGeometry>
        </mxCell>
        <mxCell id="XwbMIS1E7frZYYk09Ymr-24" style="edgeStyle=orthogonalEdgeStyle;rounded=0;orthogonalLoop=1;jettySize=auto;html=1;entryX=0.5;entryY=0;entryDx=0;entryDy=0;" edge="1" parent="1" source="XwbMIS1E7frZYYk09Ymr-19" target="XwbMIS1E7frZYYk09Ymr-23">
          <mxGeometry relative="1" as="geometry" />
        </mxCell>
        <mxCell id="XwbMIS1E7frZYYk09Ymr-19" value="x &amp;lt;= 200" style="rhombus;whiteSpace=wrap;html=1;" vertex="1" parent="1">
          <mxGeometry x="350" y="810" width="80" height="80" as="geometry" />
        </mxCell>
        <mxCell id="XwbMIS1E7frZYYk09Ymr-22" value="SÃ­" style="text;html=1;align=center;verticalAlign=middle;resizable=0;points=[];autosize=1;strokeColor=none;fillColor=none;" vertex="1" parent="1">
          <mxGeometry x="320" y="821" width="30" height="30" as="geometry" />
        </mxCell>
        <mxCell id="XwbMIS1E7frZYYk09Ymr-26" style="edgeStyle=orthogonalEdgeStyle;rounded=0;orthogonalLoop=1;jettySize=auto;html=1;entryX=0.5;entryY=0;entryDx=0;entryDy=0;" edge="1" parent="1" source="XwbMIS1E7frZYYk09Ymr-23" target="XwbMIS1E7frZYYk09Ymr-25">
          <mxGeometry relative="1" as="geometry" />
        </mxCell>
        <mxCell id="XwbMIS1E7frZYYk09Ymr-23" value="Escriu&lt;br&gt;&quot;La suma dels parells es: &quot; + par&lt;br&gt;&quot;La suma dels imparells es: &quot; + impar" style="shape=parallelogram;perimeter=parallelogramPerimeter;whiteSpace=wrap;html=1;fixedSize=1;" vertex="1" parent="1">
          <mxGeometry x="270" y="920" width="240" height="90" as="geometry" />
        </mxCell>
        <mxCell id="XwbMIS1E7frZYYk09Ymr-25" value="Fi" style="rounded=1;whiteSpace=wrap;html=1;" vertex="1" parent="1">
          <mxGeometry x="340" y="1050" width="100" height="30" as="geometry" />
        </mxCell>
        <mxCell id="XwbMIS1E7frZYYk09Ymr-27" value="No" style="text;html=1;align=center;verticalAlign=middle;resizable=0;points=[];autosize=1;strokeColor=none;fillColor=none;" vertex="1" parent="1">
          <mxGeometry x="390" y="878" width="40" height="30" as="geometry" />
        </mxCell>
        <mxCell id="0xCZFdFY_cG7jvgHGYxk-1" value="SÃ­" style="text;html=1;align=center;verticalAlign=middle;resizable=0;points=[];autosize=1;strokeColor=none;fillColor=none;" vertex="1" parent="1">
          <mxGeometry x="425" y="498" width="30" height="30" as="geometry" />
        </mxCell>
        <mxCell id="0xCZFdFY_cG7jvgHGYxk-2" value="No" style="text;html=1;align=center;verticalAlign=middle;resizable=0;points=[];autosize=1;strokeColor=none;fillColor=none;" vertex="1" parent="1">
          <mxGeometry x="310" y="498" width="40" height="30" as="geometry" />
        </mxCell>
      </root>
    </mxGraphModel>
  </diagram>
  <diagram id="Ob_g6J__4wvkq3LG2N8R" name="Page-12">
    <mxGraphModel dx="1040" dy="661" grid="1" gridSize="10" guides="1" tooltips="1" connect="1" arrows="1" fold="1" page="1" pageScale="1" pageWidth="850" pageHeight="1100" math="0" shadow="0">
      <root>
        <mxCell id="0" />
        <mxCell id="1" parent="0" />
        <mxCell id="p70aV4xnZwVGY6B81nit-1" value="&lt;font style=&quot;font-size: 16px;&quot;&gt;12. Ordinograma d&#39;un programa que calcule A^B sense usar el sÃ­mbol ^, sent A i B introduits per teclat i mostra el resultat per pantalla.&lt;/font&gt;" style="rounded=0;whiteSpace=wrap;html=1;align=center;" vertex="1" parent="1">
          <mxGeometry x="50" y="20" width="710" height="50" as="geometry" />
        </mxCell>
        <mxCell id="2B4gHptXtRCJJ95aSwG--1" style="edgeStyle=orthogonalEdgeStyle;rounded=0;orthogonalLoop=1;jettySize=auto;html=1;entryX=0.5;entryY=0;entryDx=0;entryDy=0;" edge="1" parent="1" source="2B4gHptXtRCJJ95aSwG--2">
          <mxGeometry relative="1" as="geometry">
            <mxPoint x="390" y="156" as="targetPoint" />
          </mxGeometry>
        </mxCell>
        <mxCell id="2B4gHptXtRCJJ95aSwG--2" value="Inici" style="rounded=1;whiteSpace=wrap;html=1;" vertex="1" parent="1">
          <mxGeometry x="340" y="91" width="100" height="30" as="geometry" />
        </mxCell>
        <mxCell id="2B4gHptXtRCJJ95aSwG--3" value="Imprimix &quot;Introduix dos nÃºmeros (A i B)" style="shape=parallelogram;perimeter=parallelogramPerimeter;whiteSpace=wrap;html=1;fixedSize=1;" vertex="1" parent="1">
          <mxGeometry x="305" y="250" width="170" height="60" as="geometry" />
        </mxCell>
        <mxCell id="mhUlVAEYvhCXw-qjAk9L-2" style="edgeStyle=orthogonalEdgeStyle;rounded=0;orthogonalLoop=1;jettySize=auto;html=1;entryX=0.5;entryY=0;entryDx=0;entryDy=0;" edge="1" parent="1" source="2B4gHptXtRCJJ95aSwG--4" target="mhUlVAEYvhCXw-qjAk9L-1">
          <mxGeometry relative="1" as="geometry" />
        </mxCell>
        <mxCell id="2B4gHptXtRCJJ95aSwG--4" value="Llig A, B" style="shape=parallelogram;perimeter=parallelogramPerimeter;whiteSpace=wrap;html=1;fixedSize=1;" vertex="1" parent="1">
          <mxGeometry x="330" y="360" width="120" height="40" as="geometry" />
        </mxCell>
        <mxCell id="2B4gHptXtRCJJ95aSwG--5" style="edgeStyle=orthogonalEdgeStyle;rounded=0;orthogonalLoop=1;jettySize=auto;html=1;entryX=0.5;entryY=0;entryDx=0;entryDy=0;" edge="1" parent="1" source="2B4gHptXtRCJJ95aSwG--3" target="2B4gHptXtRCJJ95aSwG--4">
          <mxGeometry relative="1" as="geometry" />
        </mxCell>
        <mxCell id="mhUlVAEYvhCXw-qjAk9L-7" style="edgeStyle=orthogonalEdgeStyle;rounded=0;orthogonalLoop=1;jettySize=auto;html=1;entryX=0.5;entryY=0;entryDx=0;entryDy=0;" edge="1" parent="1" source="2B4gHptXtRCJJ95aSwG--7" target="2B4gHptXtRCJJ95aSwG--3">
          <mxGeometry relative="1" as="geometry" />
        </mxCell>
        <mxCell id="2B4gHptXtRCJJ95aSwG--7" value="pot = 1" style="rounded=0;whiteSpace=wrap;html=1;" vertex="1" parent="1">
          <mxGeometry x="330" y="160" width="120" height="40" as="geometry" />
        </mxCell>
        <mxCell id="2B4gHptXtRCJJ95aSwG--16" style="edgeStyle=orthogonalEdgeStyle;rounded=0;orthogonalLoop=1;jettySize=auto;html=1;entryX=0.5;entryY=0;entryDx=0;entryDy=0;" edge="1" parent="1" source="2B4gHptXtRCJJ95aSwG--13" target="2B4gHptXtRCJJ95aSwG--15">
          <mxGeometry relative="1" as="geometry" />
        </mxCell>
        <mxCell id="2B4gHptXtRCJJ95aSwG--13" value="pot = A * pot" style="rounded=0;whiteSpace=wrap;html=1;" vertex="1" parent="1">
          <mxGeometry x="330.5" y="580" width="120" height="40" as="geometry" />
        </mxCell>
        <mxCell id="mhUlVAEYvhCXw-qjAk9L-9" style="edgeStyle=orthogonalEdgeStyle;rounded=0;orthogonalLoop=1;jettySize=auto;html=1;entryX=0.5;entryY=0;entryDx=0;entryDy=0;" edge="1" parent="1" source="2B4gHptXtRCJJ95aSwG--15" target="2B4gHptXtRCJJ95aSwG--20">
          <mxGeometry relative="1" as="geometry" />
        </mxCell>
        <mxCell id="2B4gHptXtRCJJ95aSwG--15" value="B = B - 1" style="rounded=0;whiteSpace=wrap;html=1;" vertex="1" parent="1">
          <mxGeometry x="330.5" y="680" width="120" height="40" as="geometry" />
        </mxCell>
        <mxCell id="2B4gHptXtRCJJ95aSwG--27" style="edgeStyle=orthogonalEdgeStyle;rounded=0;orthogonalLoop=1;jettySize=auto;html=1;entryX=0.5;entryY=0;entryDx=0;entryDy=0;" edge="1" parent="1" source="2B4gHptXtRCJJ95aSwG--20" target="2B4gHptXtRCJJ95aSwG--26">
          <mxGeometry relative="1" as="geometry" />
        </mxCell>
        <mxCell id="mhUlVAEYvhCXw-qjAk9L-12" style="edgeStyle=orthogonalEdgeStyle;rounded=0;orthogonalLoop=1;jettySize=auto;html=1;" edge="1" parent="1" source="2B4gHptXtRCJJ95aSwG--20">
          <mxGeometry relative="1" as="geometry">
            <mxPoint x="380" y="550" as="targetPoint" />
            <Array as="points">
              <mxPoint x="240" y="810" />
              <mxPoint x="240" y="550" />
            </Array>
          </mxGeometry>
        </mxCell>
        <mxCell id="2B4gHptXtRCJJ95aSwG--20" value="B &amp;lt;&amp;gt; 1" style="rhombus;whiteSpace=wrap;html=1;" vertex="1" parent="1">
          <mxGeometry x="350" y="770" width="80" height="80" as="geometry" />
        </mxCell>
        <mxCell id="2B4gHptXtRCJJ95aSwG--25" value="SÃ­" style="text;html=1;align=center;verticalAlign=middle;resizable=0;points=[];autosize=1;strokeColor=none;fillColor=none;" vertex="1" parent="1">
          <mxGeometry x="320" y="770" width="30" height="30" as="geometry" />
        </mxCell>
        <mxCell id="2B4gHptXtRCJJ95aSwG--29" style="edgeStyle=orthogonalEdgeStyle;rounded=0;orthogonalLoop=1;jettySize=auto;html=1;entryX=0.5;entryY=0;entryDx=0;entryDy=0;" edge="1" parent="1" source="2B4gHptXtRCJJ95aSwG--26" target="2B4gHptXtRCJJ95aSwG--28">
          <mxGeometry relative="1" as="geometry" />
        </mxCell>
        <mxCell id="2B4gHptXtRCJJ95aSwG--26" value="Escriu &quot;El resultat de A^B es: &quot; + pot" style="shape=parallelogram;perimeter=parallelogramPerimeter;whiteSpace=wrap;html=1;fixedSize=1;" vertex="1" parent="1">
          <mxGeometry x="270" y="900" width="240" height="60" as="geometry" />
        </mxCell>
        <mxCell id="2B4gHptXtRCJJ95aSwG--28" value="Fi" style="rounded=1;whiteSpace=wrap;html=1;" vertex="1" parent="1">
          <mxGeometry x="340" y="1010" width="100" height="30" as="geometry" />
        </mxCell>
        <mxCell id="mhUlVAEYvhCXw-qjAk9L-3" style="edgeStyle=orthogonalEdgeStyle;rounded=0;orthogonalLoop=1;jettySize=auto;html=1;" edge="1" parent="1" source="mhUlVAEYvhCXw-qjAk9L-1">
          <mxGeometry relative="1" as="geometry">
            <mxPoint x="380" y="230" as="targetPoint" />
            <Array as="points">
              <mxPoint x="260" y="490" />
              <mxPoint x="260" y="230" />
            </Array>
          </mxGeometry>
        </mxCell>
        <mxCell id="mhUlVAEYvhCXw-qjAk9L-8" style="edgeStyle=orthogonalEdgeStyle;rounded=0;orthogonalLoop=1;jettySize=auto;html=1;entryX=0.5;entryY=0;entryDx=0;entryDy=0;" edge="1" parent="1" source="mhUlVAEYvhCXw-qjAk9L-1" target="2B4gHptXtRCJJ95aSwG--13">
          <mxGeometry relative="1" as="geometry" />
        </mxCell>
        <mxCell id="mhUlVAEYvhCXw-qjAk9L-1" value="B = 0" style="rhombus;whiteSpace=wrap;html=1;" vertex="1" parent="1">
          <mxGeometry x="350" y="450" width="80" height="80" as="geometry" />
        </mxCell>
        <mxCell id="mhUlVAEYvhCXw-qjAk9L-4" value="SÃ­" style="text;html=1;align=center;verticalAlign=middle;resizable=0;points=[];autosize=1;strokeColor=none;fillColor=none;" vertex="1" parent="1">
          <mxGeometry x="315" y="458" width="30" height="30" as="geometry" />
        </mxCell>
        <mxCell id="mhUlVAEYvhCXw-qjAk9L-6" value="No" style="text;html=1;align=center;verticalAlign=middle;resizable=0;points=[];autosize=1;strokeColor=none;fillColor=none;" vertex="1" parent="1">
          <mxGeometry x="390" y="530" width="40" height="30" as="geometry" />
        </mxCell>
        <mxCell id="mhUlVAEYvhCXw-qjAk9L-14" value="No" style="text;html=1;align=center;verticalAlign=middle;resizable=0;points=[];autosize=1;strokeColor=none;fillColor=none;" vertex="1" parent="1">
          <mxGeometry x="390" y="848" width="40" height="30" as="geometry" />
        </mxCell>
      </root>
    </mxGraphModel>
  </diagram>
  <diagram id="_m4WwC016ixYXd1hOYgN" name="Page-13">
    <mxGraphModel dx="1040" dy="661" grid="1" gridSize="10" guides="1" tooltips="1" connect="1" arrows="1" fold="1" page="1" pageScale="1" pageWidth="850" pageHeight="1100" math="0" shadow="0">
      <root>
        <mxCell id="0" />
        <mxCell id="1" parent="0" />
        <mxCell id="GhbsT3DJsATEwo4u_laW-1" value="&lt;font style=&quot;font-size: 16px;&quot;&gt;13. Ordinograma d&#39;un programa que adivina el nÃºmero que pensa l&#39;usuari de l&#39;1 al 100, i si no es correcte, l&#39;usuari indica si es menor, major o igual.&lt;/font&gt;" style="rounded=0;whiteSpace=wrap;html=1;align=center;" vertex="1" parent="1">
          <mxGeometry x="50" y="20" width="710" height="50" as="geometry" />
        </mxCell>
        <mxCell id="Rijp9zw23mf-9WyjTXxg-1" style="edgeStyle=orthogonalEdgeStyle;rounded=0;orthogonalLoop=1;jettySize=auto;html=1;entryX=0.5;entryY=0;entryDx=0;entryDy=0;" edge="1" parent="1" source="Rijp9zw23mf-9WyjTXxg-2">
          <mxGeometry relative="1" as="geometry">
            <mxPoint x="390" y="156" as="targetPoint" />
          </mxGeometry>
        </mxCell>
        <mxCell id="Rijp9zw23mf-9WyjTXxg-2" value="Inici" style="rounded=1;whiteSpace=wrap;html=1;" vertex="1" parent="1">
          <mxGeometry x="340" y="91" width="100" height="30" as="geometry" />
        </mxCell>
        <mxCell id="Rijp9zw23mf-9WyjTXxg-7" style="edgeStyle=orthogonalEdgeStyle;rounded=0;orthogonalLoop=1;jettySize=auto;html=1;entryX=0.5;entryY=0;entryDx=0;entryDy=0;" edge="1" parent="1" source="Rijp9zw23mf-9WyjTXxg-3" target="Rijp9zw23mf-9WyjTXxg-4">
          <mxGeometry relative="1" as="geometry" />
        </mxCell>
        <mxCell id="Rijp9zw23mf-9WyjTXxg-3" value="x = num_pens" style="rounded=0;whiteSpace=wrap;html=1;" vertex="1" parent="1">
          <mxGeometry x="327.5" y="160" width="125" height="40" as="geometry" />
        </mxCell>
        <mxCell id="Rijp9zw23mf-9WyjTXxg-10" style="edgeStyle=orthogonalEdgeStyle;rounded=0;orthogonalLoop=1;jettySize=auto;html=1;entryX=0.5;entryY=0;entryDx=0;entryDy=0;" edge="1" parent="1" source="Rijp9zw23mf-9WyjTXxg-4" target="Rijp9zw23mf-9WyjTXxg-9">
          <mxGeometry relative="1" as="geometry" />
        </mxCell>
        <mxCell id="Rijp9zw23mf-9WyjTXxg-4" value="y = num_prop" style="rounded=0;whiteSpace=wrap;html=1;" vertex="1" parent="1">
          <mxGeometry x="327.5" y="240" width="125" height="40" as="geometry" />
        </mxCell>
        <mxCell id="Rijp9zw23mf-9WyjTXxg-12" style="edgeStyle=orthogonalEdgeStyle;rounded=0;orthogonalLoop=1;jettySize=auto;html=1;exitX=1;exitY=0.5;exitDx=0;exitDy=0;" edge="1" parent="1" source="Rijp9zw23mf-9WyjTXxg-6">
          <mxGeometry relative="1" as="geometry">
            <mxPoint x="400" y="300" as="targetPoint" />
            <Array as="points">
              <mxPoint x="520" y="450" />
              <mxPoint x="520" y="300" />
            </Array>
          </mxGeometry>
        </mxCell>
        <mxCell id="Rijp9zw23mf-9WyjTXxg-15" style="edgeStyle=orthogonalEdgeStyle;rounded=0;orthogonalLoop=1;jettySize=auto;html=1;entryX=0.5;entryY=0;entryDx=0;entryDy=0;" edge="1" parent="1" source="Rijp9zw23mf-9WyjTXxg-6" target="Rijp9zw23mf-9WyjTXxg-14">
          <mxGeometry relative="1" as="geometry" />
        </mxCell>
        <mxCell id="Rijp9zw23mf-9WyjTXxg-6" value="y&amp;lt;1 or y&amp;gt;100" style="rhombus;whiteSpace=wrap;html=1;" vertex="1" parent="1">
          <mxGeometry x="342" y="410" width="95" height="80" as="geometry" />
        </mxCell>
        <mxCell id="Rijp9zw23mf-9WyjTXxg-11" style="edgeStyle=orthogonalEdgeStyle;rounded=0;orthogonalLoop=1;jettySize=auto;html=1;entryX=0.5;entryY=0;entryDx=0;entryDy=0;" edge="1" parent="1" source="Rijp9zw23mf-9WyjTXxg-9" target="Rijp9zw23mf-9WyjTXxg-6">
          <mxGeometry relative="1" as="geometry" />
        </mxCell>
        <mxCell id="Rijp9zw23mf-9WyjTXxg-9" value="Escriu y" style="shape=parallelogram;perimeter=parallelogramPerimeter;whiteSpace=wrap;html=1;fixedSize=1;" vertex="1" parent="1">
          <mxGeometry x="329.5" y="330" width="120" height="40" as="geometry" />
        </mxCell>
        <mxCell id="Rijp9zw23mf-9WyjTXxg-13" value="SÃ­" style="text;html=1;align=center;verticalAlign=middle;resizable=0;points=[];autosize=1;strokeColor=none;fillColor=none;" vertex="1" parent="1">
          <mxGeometry x="434" y="415" width="30" height="30" as="geometry" />
        </mxCell>
        <mxCell id="Rijp9zw23mf-9WyjTXxg-17" style="edgeStyle=orthogonalEdgeStyle;rounded=0;orthogonalLoop=1;jettySize=auto;html=1;" edge="1" parent="1" source="Rijp9zw23mf-9WyjTXxg-14" target="Rijp9zw23mf-9WyjTXxg-16">
          <mxGeometry relative="1" as="geometry" />
        </mxCell>
        <mxCell id="Rijp9zw23mf-9WyjTXxg-14" value="Imprimix &quot;Com es la Resposta?&quot;" style="shape=parallelogram;perimeter=parallelogramPerimeter;whiteSpace=wrap;html=1;fixedSize=1;" vertex="1" parent="1">
          <mxGeometry x="309.5" y="530" width="160" height="60" as="geometry" />
        </mxCell>
        <mxCell id="Rijp9zw23mf-9WyjTXxg-19" style="edgeStyle=orthogonalEdgeStyle;rounded=0;orthogonalLoop=1;jettySize=auto;html=1;entryX=0.5;entryY=0;entryDx=0;entryDy=0;" edge="1" parent="1" source="Rijp9zw23mf-9WyjTXxg-16" target="Rijp9zw23mf-9WyjTXxg-18">
          <mxGeometry relative="1" as="geometry" />
        </mxCell>
        <mxCell id="Rijp9zw23mf-9WyjTXxg-16" value="Llig Resposta&amp;nbsp;" style="shape=parallelogram;perimeter=parallelogramPerimeter;whiteSpace=wrap;html=1;fixedSize=1;" vertex="1" parent="1">
          <mxGeometry x="309" y="630" width="160" height="60" as="geometry" />
        </mxCell>
        <mxCell id="Rijp9zw23mf-9WyjTXxg-20" style="edgeStyle=orthogonalEdgeStyle;rounded=0;orthogonalLoop=1;jettySize=auto;html=1;" edge="1" parent="1" source="Rijp9zw23mf-9WyjTXxg-18">
          <mxGeometry relative="1" as="geometry">
            <mxPoint x="520" y="300" as="targetPoint" />
            <Array as="points">
              <mxPoint x="630" y="795" />
              <mxPoint x="630" y="300" />
            </Array>
          </mxGeometry>
        </mxCell>
        <mxCell id="Rijp9zw23mf-9WyjTXxg-23" style="edgeStyle=orthogonalEdgeStyle;rounded=0;orthogonalLoop=1;jettySize=auto;html=1;entryX=0.5;entryY=0;entryDx=0;entryDy=0;" edge="1" parent="1" source="Rijp9zw23mf-9WyjTXxg-18" target="Rijp9zw23mf-9WyjTXxg-22">
          <mxGeometry relative="1" as="geometry" />
        </mxCell>
        <mxCell id="Rijp9zw23mf-9WyjTXxg-18" value="Resposta = &quot;major&quot; or Resposta = &quot;Major&quot;" style="rhombus;whiteSpace=wrap;html=1;" vertex="1" parent="1">
          <mxGeometry x="305" y="730" width="170" height="130" as="geometry" />
        </mxCell>
        <mxCell id="Rijp9zw23mf-9WyjTXxg-21" value="SÃ­" style="text;html=1;align=center;verticalAlign=middle;resizable=0;points=[];autosize=1;strokeColor=none;fillColor=none;" vertex="1" parent="1">
          <mxGeometry x="475" y="758" width="30" height="30" as="geometry" />
        </mxCell>
        <mxCell id="Rijp9zw23mf-9WyjTXxg-25" style="edgeStyle=orthogonalEdgeStyle;rounded=0;orthogonalLoop=1;jettySize=auto;html=1;" edge="1" parent="1" source="Rijp9zw23mf-9WyjTXxg-22">
          <mxGeometry relative="1" as="geometry">
            <mxPoint x="640" y="296.4444173177083" as="targetPoint" />
            <Array as="points">
              <mxPoint x="700" y="955" />
              <mxPoint x="700" y="296" />
            </Array>
          </mxGeometry>
        </mxCell>
        <mxCell id="Rijp9zw23mf-9WyjTXxg-28" style="edgeStyle=orthogonalEdgeStyle;rounded=0;orthogonalLoop=1;jettySize=auto;html=1;" edge="1" parent="1" source="Rijp9zw23mf-9WyjTXxg-22" target="Rijp9zw23mf-9WyjTXxg-27">
          <mxGeometry relative="1" as="geometry" />
        </mxCell>
        <mxCell id="Rijp9zw23mf-9WyjTXxg-22" value="Resposta = &quot;menor&quot; or Resposta = &quot;Menor&quot;" style="rhombus;whiteSpace=wrap;html=1;" vertex="1" parent="1">
          <mxGeometry x="304.5" y="890" width="170" height="130" as="geometry" />
        </mxCell>
        <mxCell id="Rijp9zw23mf-9WyjTXxg-24" value="No" style="text;html=1;align=center;verticalAlign=middle;resizable=0;points=[];autosize=1;strokeColor=none;fillColor=none;" vertex="1" parent="1">
          <mxGeometry x="390" y="858" width="40" height="30" as="geometry" />
        </mxCell>
        <mxCell id="Rijp9zw23mf-9WyjTXxg-26" value="SÃ­" style="text;html=1;align=center;verticalAlign=middle;resizable=0;points=[];autosize=1;strokeColor=none;fillColor=none;" vertex="1" parent="1">
          <mxGeometry x="485" y="918" width="30" height="30" as="geometry" />
        </mxCell>
        <mxCell id="Rijp9zw23mf-9WyjTXxg-30" style="edgeStyle=orthogonalEdgeStyle;rounded=0;orthogonalLoop=1;jettySize=auto;html=1;" edge="1" parent="1" source="Rijp9zw23mf-9WyjTXxg-27">
          <mxGeometry relative="1" as="geometry">
            <mxPoint x="710" y="300" as="targetPoint" />
            <Array as="points">
              <mxPoint x="770" y="1125" />
              <mxPoint x="770" y="300" />
            </Array>
          </mxGeometry>
        </mxCell>
        <mxCell id="Rijp9zw23mf-9WyjTXxg-33" style="edgeStyle=orthogonalEdgeStyle;rounded=0;orthogonalLoop=1;jettySize=auto;html=1;entryX=0.5;entryY=0;entryDx=0;entryDy=0;" edge="1" parent="1" source="Rijp9zw23mf-9WyjTXxg-27" target="Rijp9zw23mf-9WyjTXxg-32">
          <mxGeometry relative="1" as="geometry" />
        </mxCell>
        <mxCell id="Rijp9zw23mf-9WyjTXxg-27" value="Resposta &amp;lt;&amp;gt; &quot;igual&quot; or Resposta &amp;lt;&amp;gt; &quot;Igual&quot;" style="rhombus;whiteSpace=wrap;html=1;" vertex="1" parent="1">
          <mxGeometry x="304" y="1060" width="170" height="130" as="geometry" />
        </mxCell>
        <mxCell id="Rijp9zw23mf-9WyjTXxg-29" value="No" style="text;html=1;align=center;verticalAlign=middle;resizable=0;points=[];autosize=1;strokeColor=none;fillColor=none;" vertex="1" parent="1">
          <mxGeometry x="390" y="1018" width="40" height="30" as="geometry" />
        </mxCell>
        <mxCell id="Rijp9zw23mf-9WyjTXxg-31" value="SÃ­" style="text;html=1;align=center;verticalAlign=middle;resizable=0;points=[];autosize=1;strokeColor=none;fillColor=none;" vertex="1" parent="1">
          <mxGeometry x="475" y="1088" width="30" height="30" as="geometry" />
        </mxCell>
        <mxCell id="Rijp9zw23mf-9WyjTXxg-35" style="edgeStyle=orthogonalEdgeStyle;rounded=0;orthogonalLoop=1;jettySize=auto;html=1;" edge="1" parent="1" source="Rijp9zw23mf-9WyjTXxg-32" target="Rijp9zw23mf-9WyjTXxg-34">
          <mxGeometry relative="1" as="geometry" />
        </mxCell>
        <mxCell id="Rijp9zw23mf-9WyjTXxg-32" value="Imprimix &quot;el nÃºmero que havies pensat es el: &quot; + y" style="shape=parallelogram;perimeter=parallelogramPerimeter;whiteSpace=wrap;html=1;fixedSize=1;" vertex="1" parent="1">
          <mxGeometry x="235" y="1240" width="310" height="70" as="geometry" />
        </mxCell>
        <mxCell id="Rijp9zw23mf-9WyjTXxg-34" value="Fi" style="rounded=1;whiteSpace=wrap;html=1;" vertex="1" parent="1">
          <mxGeometry x="339.5" y="1380" width="100" height="30" as="geometry" />
        </mxCell>
        <mxCell id="Rijp9zw23mf-9WyjTXxg-36" value="No" style="text;html=1;align=center;verticalAlign=middle;resizable=0;points=[];autosize=1;strokeColor=none;fillColor=none;" vertex="1" parent="1">
          <mxGeometry x="380" y="1188" width="40" height="30" as="geometry" />
        </mxCell>
        <mxCell id="3gY-Y-jYBi0rTuJfVijw-1" value="No" style="text;html=1;align=center;verticalAlign=middle;resizable=0;points=[];autosize=1;strokeColor=none;fillColor=none;" vertex="1" parent="1">
          <mxGeometry x="387" y="482" width="40" height="30" as="geometry" />
        </mxCell>
      </root>
    </mxGraphModel>
  </diagram>
  <diagram id="GLP3xGyZvuy6hJ9--p2Y" name="Page-14">
    <mxGraphModel dx="1560" dy="992" grid="1" gridSize="10" guides="1" tooltips="1" connect="1" arrows="1" fold="1" page="1" pageScale="1" pageWidth="850" pageHeight="1100" math="0" shadow="0">
      <root>
        <mxCell id="0" />
        <mxCell id="1" parent="0" />
        <mxCell id="hVXZ9eRfh_0qVsckHl2r-1" value="&lt;font style=&quot;font-size: 16px;&quot;&gt;14. Ordinograma d&#39;un programa que calcula quants billets son necessaris per a la quantitat introduida per l&#39;usuari (mÃºltiple de 5â¬).&lt;/font&gt;" style="rounded=0;whiteSpace=wrap;html=1;align=center;" vertex="1" parent="1">
          <mxGeometry x="50" y="20" width="710" height="50" as="geometry" />
        </mxCell>
        <mxCell id="QYiBlpYsZpoYkYNXRY9t-1" style="edgeStyle=orthogonalEdgeStyle;rounded=0;orthogonalLoop=1;jettySize=auto;html=1;entryX=0.5;entryY=0;entryDx=0;entryDy=0;" edge="1" parent="1" source="QYiBlpYsZpoYkYNXRY9t-2">
          <mxGeometry relative="1" as="geometry">
            <mxPoint x="140" y="156" as="targetPoint" />
          </mxGeometry>
        </mxCell>
        <mxCell id="QYiBlpYsZpoYkYNXRY9t-2" value="Inici" style="rounded=1;whiteSpace=wrap;html=1;" vertex="1" parent="1">
          <mxGeometry x="90" y="91" width="100" height="30" as="geometry" />
        </mxCell>
        <mxCell id="QYiBlpYsZpoYkYNXRY9t-5" style="edgeStyle=orthogonalEdgeStyle;rounded=0;orthogonalLoop=1;jettySize=auto;html=1;entryX=0.5;entryY=0;entryDx=0;entryDy=0;" edge="1" parent="1" source="QYiBlpYsZpoYkYNXRY9t-3" target="QYiBlpYsZpoYkYNXRY9t-4">
          <mxGeometry relative="1" as="geometry" />
        </mxCell>
        <mxCell id="QYiBlpYsZpoYkYNXRY9t-3" value="Imprimix &quot;introdueix Quantitat&quot;" style="shape=parallelogram;perimeter=parallelogramPerimeter;whiteSpace=wrap;html=1;fixedSize=1;" vertex="1" parent="1">
          <mxGeometry x="65" y="338" width="150" height="60" as="geometry" />
        </mxCell>
        <mxCell id="QYiBlpYsZpoYkYNXRY9t-7" style="edgeStyle=orthogonalEdgeStyle;rounded=0;orthogonalLoop=1;jettySize=auto;html=1;entryX=0.5;entryY=0;entryDx=0;entryDy=0;" edge="1" parent="1" source="QYiBlpYsZpoYkYNXRY9t-4" target="QYiBlpYsZpoYkYNXRY9t-6">
          <mxGeometry relative="1" as="geometry" />
        </mxCell>
        <mxCell id="QYiBlpYsZpoYkYNXRY9t-4" value="Llig Quantitat" style="shape=parallelogram;perimeter=parallelogramPerimeter;whiteSpace=wrap;html=1;fixedSize=1;" vertex="1" parent="1">
          <mxGeometry x="80" y="448" width="120" height="40" as="geometry" />
        </mxCell>
        <mxCell id="QYiBlpYsZpoYkYNXRY9t-8" style="edgeStyle=orthogonalEdgeStyle;rounded=0;orthogonalLoop=1;jettySize=auto;html=1;" edge="1" parent="1" source="QYiBlpYsZpoYkYNXRY9t-6">
          <mxGeometry relative="1" as="geometry">
            <mxPoint x="155" y="308" as="targetPoint" />
            <Array as="points">
              <mxPoint x="275" y="568" />
              <mxPoint x="275" y="308" />
            </Array>
          </mxGeometry>
        </mxCell>
        <mxCell id="LKzhAQyQW1s74lqMFgUD-2" style="edgeStyle=orthogonalEdgeStyle;rounded=0;orthogonalLoop=1;jettySize=auto;html=1;" edge="1" parent="1" source="QYiBlpYsZpoYkYNXRY9t-6" target="LKzhAQyQW1s74lqMFgUD-1">
          <mxGeometry relative="1" as="geometry" />
        </mxCell>
        <mxCell id="QYiBlpYsZpoYkYNXRY9t-6" value="Quantitat%5 &amp;lt;&amp;gt;0" style="rhombus;whiteSpace=wrap;html=1;" vertex="1" parent="1">
          <mxGeometry x="80" y="528" width="120" height="80" as="geometry" />
        </mxCell>
        <mxCell id="QYiBlpYsZpoYkYNXRY9t-9" value="SÃ­" style="text;html=1;align=center;verticalAlign=middle;resizable=0;points=[];autosize=1;strokeColor=none;fillColor=none;" vertex="1" parent="1">
          <mxGeometry x="200" y="536" width="30" height="30" as="geometry" />
        </mxCell>
        <mxCell id="LKzhAQyQW1s74lqMFgUD-5" style="edgeStyle=orthogonalEdgeStyle;rounded=0;orthogonalLoop=1;jettySize=auto;html=1;entryX=0.5;entryY=0;entryDx=0;entryDy=0;" edge="1" parent="1" source="LKzhAQyQW1s74lqMFgUD-1" target="LKzhAQyQW1s74lqMFgUD-3">
          <mxGeometry relative="1" as="geometry" />
        </mxCell>
        <mxCell id="LKzhAQyQW1s74lqMFgUD-12" style="edgeStyle=orthogonalEdgeStyle;rounded=0;orthogonalLoop=1;jettySize=auto;html=1;entryX=0.5;entryY=0;entryDx=0;entryDy=0;" edge="1" parent="1" source="LKzhAQyQW1s74lqMFgUD-1" target="LKzhAQyQW1s74lqMFgUD-11">
          <mxGeometry relative="1" as="geometry" />
        </mxCell>
        <mxCell id="LKzhAQyQW1s74lqMFgUD-1" value="Quantitat &amp;gt;= 500" style="rhombus;whiteSpace=wrap;html=1;" vertex="1" parent="1">
          <mxGeometry x="85" y="648" width="110" height="80" as="geometry" />
        </mxCell>
        <mxCell id="LKzhAQyQW1s74lqMFgUD-6" style="edgeStyle=orthogonalEdgeStyle;rounded=0;orthogonalLoop=1;jettySize=auto;html=1;entryX=0.5;entryY=0;entryDx=0;entryDy=0;" edge="1" parent="1" source="LKzhAQyQW1s74lqMFgUD-3" target="LKzhAQyQW1s74lqMFgUD-4">
          <mxGeometry relative="1" as="geometry" />
        </mxCell>
        <mxCell id="LKzhAQyQW1s74lqMFgUD-3" value="Quantitat = Quantitat - 500" style="rounded=0;whiteSpace=wrap;html=1;" vertex="1" parent="1">
          <mxGeometry x="66" y="758" width="150" height="40" as="geometry" />
        </mxCell>
        <mxCell id="LKzhAQyQW1s74lqMFgUD-10" style="edgeStyle=orthogonalEdgeStyle;rounded=0;orthogonalLoop=1;jettySize=auto;html=1;entryX=0;entryY=0.5;entryDx=0;entryDy=0;exitX=0.5;exitY=1;exitDx=0;exitDy=0;" edge="1" parent="1" source="LKzhAQyQW1s74lqMFgUD-4" target="LKzhAQyQW1s74lqMFgUD-1">
          <mxGeometry relative="1" as="geometry">
            <Array as="points">
              <mxPoint x="141" y="900" />
              <mxPoint x="30" y="900" />
              <mxPoint x="30" y="688" />
            </Array>
          </mxGeometry>
        </mxCell>
        <mxCell id="LKzhAQyQW1s74lqMFgUD-4" value="Cont500 = Cont500 + 1" style="rounded=0;whiteSpace=wrap;html=1;" vertex="1" parent="1">
          <mxGeometry x="73" y="838" width="135" height="40" as="geometry" />
        </mxCell>
        <mxCell id="LKzhAQyQW1s74lqMFgUD-8" style="edgeStyle=orthogonalEdgeStyle;rounded=0;orthogonalLoop=1;jettySize=auto;html=1;entryX=0.5;entryY=0;entryDx=0;entryDy=0;" edge="1" parent="1" source="LKzhAQyQW1s74lqMFgUD-7" target="QYiBlpYsZpoYkYNXRY9t-3">
          <mxGeometry relative="1" as="geometry" />
        </mxCell>
        <mxCell id="LKzhAQyQW1s74lqMFgUD-7" value="Cont5 = 0&lt;br&gt;Cont10 = 0&lt;br&gt;Cont20 = 0&lt;br&gt;Cont50 = 0&lt;br&gt;Cont100 = 0&lt;br&gt;Cont200 = 0&lt;br&gt;Cont500 = 0&lt;br&gt;x = 0" style="rounded=0;whiteSpace=wrap;html=1;" vertex="1" parent="1">
          <mxGeometry x="80" y="160" width="120" height="130" as="geometry" />
        </mxCell>
        <mxCell id="LKzhAQyQW1s74lqMFgUD-9" value="SÃ­" style="text;html=1;align=center;verticalAlign=middle;resizable=0;points=[];autosize=1;strokeColor=none;fillColor=none;" vertex="1" parent="1">
          <mxGeometry x="105" y="718" width="30" height="30" as="geometry" />
        </mxCell>
        <mxCell id="LKzhAQyQW1s74lqMFgUD-16" style="edgeStyle=orthogonalEdgeStyle;rounded=0;orthogonalLoop=1;jettySize=auto;html=1;entryX=0.5;entryY=0;entryDx=0;entryDy=0;" edge="1" parent="1" source="LKzhAQyQW1s74lqMFgUD-11" target="LKzhAQyQW1s74lqMFgUD-14">
          <mxGeometry relative="1" as="geometry" />
        </mxCell>
        <mxCell id="LKzhAQyQW1s74lqMFgUD-21" style="edgeStyle=orthogonalEdgeStyle;rounded=0;orthogonalLoop=1;jettySize=auto;html=1;entryX=0.5;entryY=0;entryDx=0;entryDy=0;" edge="1" parent="1" source="LKzhAQyQW1s74lqMFgUD-11" target="LKzhAQyQW1s74lqMFgUD-20">
          <mxGeometry relative="1" as="geometry" />
        </mxCell>
        <mxCell id="LKzhAQyQW1s74lqMFgUD-11" value="500 &amp;gt; Quantitat &amp;gt;= 200" style="rhombus;whiteSpace=wrap;html=1;" vertex="1" parent="1">
          <mxGeometry x="288" y="728" width="155" height="80" as="geometry" />
        </mxCell>
        <mxCell id="LKzhAQyQW1s74lqMFgUD-13" value="No" style="text;html=1;align=center;verticalAlign=middle;resizable=0;points=[];autosize=1;strokeColor=none;fillColor=none;" vertex="1" parent="1">
          <mxGeometry x="200" y="658" width="40" height="30" as="geometry" />
        </mxCell>
        <mxCell id="LKzhAQyQW1s74lqMFgUD-17" style="edgeStyle=orthogonalEdgeStyle;rounded=0;orthogonalLoop=1;jettySize=auto;html=1;entryX=0.5;entryY=0;entryDx=0;entryDy=0;" edge="1" parent="1" source="LKzhAQyQW1s74lqMFgUD-14" target="LKzhAQyQW1s74lqMFgUD-15">
          <mxGeometry relative="1" as="geometry" />
        </mxCell>
        <mxCell id="LKzhAQyQW1s74lqMFgUD-14" value="Quantitat = Quantitat - 200" style="rounded=0;whiteSpace=wrap;html=1;" vertex="1" parent="1">
          <mxGeometry x="290" y="839" width="150" height="40" as="geometry" />
        </mxCell>
        <mxCell id="LKzhAQyQW1s74lqMFgUD-18" style="edgeStyle=orthogonalEdgeStyle;rounded=0;orthogonalLoop=1;jettySize=auto;html=1;entryX=0;entryY=0.5;entryDx=0;entryDy=0;" edge="1" parent="1" source="LKzhAQyQW1s74lqMFgUD-15" target="LKzhAQyQW1s74lqMFgUD-11">
          <mxGeometry relative="1" as="geometry">
            <Array as="points">
              <mxPoint x="365" y="980" />
              <mxPoint x="250" y="980" />
              <mxPoint x="250" y="768" />
            </Array>
          </mxGeometry>
        </mxCell>
        <mxCell id="LKzhAQyQW1s74lqMFgUD-15" value="Cont200 = Cont200 + 1" style="rounded=0;whiteSpace=wrap;html=1;" vertex="1" parent="1">
          <mxGeometry x="297.5" y="920" width="135" height="40" as="geometry" />
        </mxCell>
        <mxCell id="LKzhAQyQW1s74lqMFgUD-19" value="SÃ­" style="text;html=1;align=center;verticalAlign=middle;resizable=0;points=[];autosize=1;strokeColor=none;fillColor=none;" vertex="1" parent="1">
          <mxGeometry x="325" y="798" width="30" height="30" as="geometry" />
        </mxCell>
        <mxCell id="LKzhAQyQW1s74lqMFgUD-25" style="edgeStyle=orthogonalEdgeStyle;rounded=0;orthogonalLoop=1;jettySize=auto;html=1;entryX=0.5;entryY=0;entryDx=0;entryDy=0;" edge="1" parent="1" source="LKzhAQyQW1s74lqMFgUD-20" target="LKzhAQyQW1s74lqMFgUD-23">
          <mxGeometry relative="1" as="geometry" />
        </mxCell>
        <mxCell id="LKzhAQyQW1s74lqMFgUD-36" style="edgeStyle=orthogonalEdgeStyle;rounded=0;orthogonalLoop=1;jettySize=auto;html=1;entryX=0.5;entryY=0;entryDx=0;entryDy=0;" edge="1" parent="1" source="LKzhAQyQW1s74lqMFgUD-20" target="LKzhAQyQW1s74lqMFgUD-29">
          <mxGeometry relative="1" as="geometry" />
        </mxCell>
        <mxCell id="LKzhAQyQW1s74lqMFgUD-20" value="200 &amp;gt; Quantitat &amp;gt;= 100" style="rhombus;whiteSpace=wrap;html=1;" vertex="1" parent="1">
          <mxGeometry x="491" y="808" width="160" height="80" as="geometry" />
        </mxCell>
        <mxCell id="LKzhAQyQW1s74lqMFgUD-26" style="edgeStyle=orthogonalEdgeStyle;rounded=0;orthogonalLoop=1;jettySize=auto;html=1;" edge="1" parent="1" source="LKzhAQyQW1s74lqMFgUD-23" target="LKzhAQyQW1s74lqMFgUD-24">
          <mxGeometry relative="1" as="geometry" />
        </mxCell>
        <mxCell id="LKzhAQyQW1s74lqMFgUD-23" value="Quantitat = Quantitat - 100" style="rounded=0;whiteSpace=wrap;html=1;" vertex="1" parent="1">
          <mxGeometry x="490" y="920" width="160" height="40" as="geometry" />
        </mxCell>
        <mxCell id="LKzhAQyQW1s74lqMFgUD-27" style="edgeStyle=orthogonalEdgeStyle;rounded=0;orthogonalLoop=1;jettySize=auto;html=1;entryX=0;entryY=0.5;entryDx=0;entryDy=0;" edge="1" parent="1" source="LKzhAQyQW1s74lqMFgUD-24" target="LKzhAQyQW1s74lqMFgUD-20">
          <mxGeometry relative="1" as="geometry">
            <Array as="points">
              <mxPoint x="570" y="1060" />
              <mxPoint x="470" y="1060" />
              <mxPoint x="470" y="848" />
            </Array>
          </mxGeometry>
        </mxCell>
        <mxCell id="LKzhAQyQW1s74lqMFgUD-24" value="Cont100 = Cont100 + 1" style="rounded=0;whiteSpace=wrap;html=1;" vertex="1" parent="1">
          <mxGeometry x="502.5" y="1000" width="135" height="40" as="geometry" />
        </mxCell>
        <mxCell id="LKzhAQyQW1s74lqMFgUD-28" value="No" style="text;html=1;align=center;verticalAlign=middle;resizable=0;points=[];autosize=1;strokeColor=none;fillColor=none;" vertex="1" parent="1">
          <mxGeometry x="410" y="728" width="40" height="30" as="geometry" />
        </mxCell>
        <mxCell id="LKzhAQyQW1s74lqMFgUD-32" style="edgeStyle=orthogonalEdgeStyle;rounded=0;orthogonalLoop=1;jettySize=auto;html=1;entryX=0.5;entryY=0;entryDx=0;entryDy=0;" edge="1" parent="1" source="LKzhAQyQW1s74lqMFgUD-29" target="LKzhAQyQW1s74lqMFgUD-30">
          <mxGeometry relative="1" as="geometry" />
        </mxCell>
        <mxCell id="LKzhAQyQW1s74lqMFgUD-39" style="edgeStyle=orthogonalEdgeStyle;rounded=0;orthogonalLoop=1;jettySize=auto;html=1;entryX=0.5;entryY=0;entryDx=0;entryDy=0;" edge="1" parent="1" source="LKzhAQyQW1s74lqMFgUD-29" target="LKzhAQyQW1s74lqMFgUD-38">
          <mxGeometry relative="1" as="geometry" />
        </mxCell>
        <mxCell id="LKzhAQyQW1s74lqMFgUD-29" value="100 &amp;gt; Quantitat &amp;gt;= 50" style="rhombus;whiteSpace=wrap;html=1;" vertex="1" parent="1">
          <mxGeometry x="711" y="878" width="140" height="80" as="geometry" />
        </mxCell>
        <mxCell id="LKzhAQyQW1s74lqMFgUD-33" style="edgeStyle=orthogonalEdgeStyle;rounded=0;orthogonalLoop=1;jettySize=auto;html=1;entryX=0.5;entryY=0;entryDx=0;entryDy=0;" edge="1" parent="1" source="LKzhAQyQW1s74lqMFgUD-30" target="LKzhAQyQW1s74lqMFgUD-31">
          <mxGeometry relative="1" as="geometry" />
        </mxCell>
        <mxCell id="LKzhAQyQW1s74lqMFgUD-30" value="Quantitat = Quantitat - 50" style="rounded=0;whiteSpace=wrap;html=1;" vertex="1" parent="1">
          <mxGeometry x="707" y="1000" width="150" height="40" as="geometry" />
        </mxCell>
        <mxCell id="LKzhAQyQW1s74lqMFgUD-34" style="edgeStyle=orthogonalEdgeStyle;rounded=0;orthogonalLoop=1;jettySize=auto;html=1;entryX=0;entryY=0.5;entryDx=0;entryDy=0;" edge="1" parent="1" source="LKzhAQyQW1s74lqMFgUD-31" target="LKzhAQyQW1s74lqMFgUD-29">
          <mxGeometry relative="1" as="geometry">
            <Array as="points">
              <mxPoint x="680" y="1101" />
              <mxPoint x="680" y="918" />
            </Array>
          </mxGeometry>
        </mxCell>
        <mxCell id="LKzhAQyQW1s74lqMFgUD-31" value="Cont50 = Cont50 + 1" style="rounded=0;whiteSpace=wrap;html=1;" vertex="1" parent="1">
          <mxGeometry x="713.5" y="1081" width="135" height="40" as="geometry" />
        </mxCell>
        <mxCell id="LKzhAQyQW1s74lqMFgUD-35" value="SÃ­" style="text;html=1;align=center;verticalAlign=middle;resizable=0;points=[];autosize=1;strokeColor=none;fillColor=none;" vertex="1" parent="1">
          <mxGeometry x="535" y="888" width="30" height="30" as="geometry" />
        </mxCell>
        <mxCell id="LKzhAQyQW1s74lqMFgUD-37" value="No" style="text;html=1;align=center;verticalAlign=middle;resizable=0;points=[];autosize=1;strokeColor=none;fillColor=none;" vertex="1" parent="1">
          <mxGeometry x="620" y="808" width="40" height="30" as="geometry" />
        </mxCell>
        <mxCell id="LKzhAQyQW1s74lqMFgUD-42" style="edgeStyle=orthogonalEdgeStyle;rounded=0;orthogonalLoop=1;jettySize=auto;html=1;entryX=0.5;entryY=0;entryDx=0;entryDy=0;" edge="1" parent="1" source="LKzhAQyQW1s74lqMFgUD-38" target="LKzhAQyQW1s74lqMFgUD-40">
          <mxGeometry relative="1" as="geometry" />
        </mxCell>
        <mxCell id="LKzhAQyQW1s74lqMFgUD-46" style="edgeStyle=orthogonalEdgeStyle;rounded=0;orthogonalLoop=1;jettySize=auto;html=1;entryX=0.5;entryY=0;entryDx=0;entryDy=0;" edge="1" parent="1" source="LKzhAQyQW1s74lqMFgUD-38" target="LKzhAQyQW1s74lqMFgUD-45">
          <mxGeometry relative="1" as="geometry" />
        </mxCell>
        <mxCell id="LKzhAQyQW1s74lqMFgUD-38" value="50 &amp;gt; Quantitat &amp;gt;= 20" style="rhombus;whiteSpace=wrap;html=1;" vertex="1" parent="1">
          <mxGeometry x="922" y="950" width="136" height="80" as="geometry" />
        </mxCell>
        <mxCell id="LKzhAQyQW1s74lqMFgUD-43" style="edgeStyle=orthogonalEdgeStyle;rounded=0;orthogonalLoop=1;jettySize=auto;html=1;entryX=0.5;entryY=0;entryDx=0;entryDy=0;" edge="1" parent="1" source="LKzhAQyQW1s74lqMFgUD-40" target="LKzhAQyQW1s74lqMFgUD-41">
          <mxGeometry relative="1" as="geometry" />
        </mxCell>
        <mxCell id="LKzhAQyQW1s74lqMFgUD-40" value="Quantitat = Quantitat - 20" style="rounded=0;whiteSpace=wrap;html=1;" vertex="1" parent="1">
          <mxGeometry x="916" y="1070" width="150" height="40" as="geometry" />
        </mxCell>
        <mxCell id="LKzhAQyQW1s74lqMFgUD-44" style="edgeStyle=orthogonalEdgeStyle;rounded=0;orthogonalLoop=1;jettySize=auto;html=1;entryX=0;entryY=0.5;entryDx=0;entryDy=0;" edge="1" parent="1" source="LKzhAQyQW1s74lqMFgUD-41" target="LKzhAQyQW1s74lqMFgUD-38">
          <mxGeometry relative="1" as="geometry">
            <Array as="points">
              <mxPoint x="990" y="1210" />
              <mxPoint x="890" y="1210" />
              <mxPoint x="890" y="990" />
            </Array>
          </mxGeometry>
        </mxCell>
        <mxCell id="LKzhAQyQW1s74lqMFgUD-41" value="Cont20 = Cont20 + 1" style="rounded=0;whiteSpace=wrap;html=1;" vertex="1" parent="1">
          <mxGeometry x="922.5" y="1150" width="135" height="40" as="geometry" />
        </mxCell>
        <mxCell id="LKzhAQyQW1s74lqMFgUD-49" style="edgeStyle=orthogonalEdgeStyle;rounded=0;orthogonalLoop=1;jettySize=auto;html=1;entryX=0.5;entryY=0;entryDx=0;entryDy=0;" edge="1" parent="1" source="LKzhAQyQW1s74lqMFgUD-45" target="LKzhAQyQW1s74lqMFgUD-47">
          <mxGeometry relative="1" as="geometry" />
        </mxCell>
        <mxCell id="LKzhAQyQW1s74lqMFgUD-56" style="edgeStyle=orthogonalEdgeStyle;rounded=0;orthogonalLoop=1;jettySize=auto;html=1;entryX=0.5;entryY=0;entryDx=0;entryDy=0;" edge="1" parent="1" source="LKzhAQyQW1s74lqMFgUD-45" target="LKzhAQyQW1s74lqMFgUD-55">
          <mxGeometry relative="1" as="geometry" />
        </mxCell>
        <mxCell id="LKzhAQyQW1s74lqMFgUD-45" value="20 &amp;gt; Quantitat &amp;gt;= 10" style="rhombus;whiteSpace=wrap;html=1;" vertex="1" parent="1">
          <mxGeometry x="1136" y="1020" width="140" height="80" as="geometry" />
        </mxCell>
        <mxCell id="LKzhAQyQW1s74lqMFgUD-50" style="edgeStyle=orthogonalEdgeStyle;rounded=0;orthogonalLoop=1;jettySize=auto;html=1;entryX=0.5;entryY=0;entryDx=0;entryDy=0;" edge="1" parent="1" source="LKzhAQyQW1s74lqMFgUD-47" target="LKzhAQyQW1s74lqMFgUD-48">
          <mxGeometry relative="1" as="geometry" />
        </mxCell>
        <mxCell id="LKzhAQyQW1s74lqMFgUD-47" value="Quantitat = Quantitat - 10" style="rounded=0;whiteSpace=wrap;html=1;" vertex="1" parent="1">
          <mxGeometry x="1130" y="1130" width="150" height="40" as="geometry" />
        </mxCell>
        <mxCell id="LKzhAQyQW1s74lqMFgUD-51" style="edgeStyle=orthogonalEdgeStyle;rounded=0;orthogonalLoop=1;jettySize=auto;html=1;entryX=0;entryY=0.5;entryDx=0;entryDy=0;" edge="1" parent="1" source="LKzhAQyQW1s74lqMFgUD-48" target="LKzhAQyQW1s74lqMFgUD-45">
          <mxGeometry relative="1" as="geometry">
            <Array as="points">
              <mxPoint x="1110" y="1230" />
              <mxPoint x="1110" y="1060" />
            </Array>
          </mxGeometry>
        </mxCell>
        <mxCell id="LKzhAQyQW1s74lqMFgUD-48" value="Cont10 = Cont10 + 1" style="rounded=0;whiteSpace=wrap;html=1;" vertex="1" parent="1">
          <mxGeometry x="1138" y="1210" width="135" height="40" as="geometry" />
        </mxCell>
        <mxCell id="LKzhAQyQW1s74lqMFgUD-52" value="SÃ­" style="text;html=1;align=center;verticalAlign=middle;resizable=0;points=[];autosize=1;strokeColor=none;fillColor=none;" vertex="1" parent="1">
          <mxGeometry x="745" y="958" width="30" height="30" as="geometry" />
        </mxCell>
        <mxCell id="LKzhAQyQW1s74lqMFgUD-53" value="SÃ­" style="text;html=1;align=center;verticalAlign=middle;resizable=0;points=[];autosize=1;strokeColor=none;fillColor=none;" vertex="1" parent="1">
          <mxGeometry x="955" y="1028" width="30" height="30" as="geometry" />
        </mxCell>
        <mxCell id="LKzhAQyQW1s74lqMFgUD-54" value="SÃ­" style="text;html=1;align=center;verticalAlign=middle;resizable=0;points=[];autosize=1;strokeColor=none;fillColor=none;" vertex="1" parent="1">
          <mxGeometry x="1175" y="1098" width="30" height="30" as="geometry" />
        </mxCell>
        <mxCell id="LKzhAQyQW1s74lqMFgUD-62" style="edgeStyle=orthogonalEdgeStyle;rounded=0;orthogonalLoop=1;jettySize=auto;html=1;entryX=0.5;entryY=0;entryDx=0;entryDy=0;" edge="1" parent="1" source="LKzhAQyQW1s74lqMFgUD-55" target="LKzhAQyQW1s74lqMFgUD-60">
          <mxGeometry relative="1" as="geometry" />
        </mxCell>
        <mxCell id="LKzhAQyQW1s74lqMFgUD-66" style="edgeStyle=orthogonalEdgeStyle;rounded=0;orthogonalLoop=1;jettySize=auto;html=1;entryX=0.5;entryY=0;entryDx=0;entryDy=0;" edge="1" parent="1" source="LKzhAQyQW1s74lqMFgUD-55" target="LKzhAQyQW1s74lqMFgUD-65">
          <mxGeometry relative="1" as="geometry" />
        </mxCell>
        <mxCell id="LKzhAQyQW1s74lqMFgUD-55" value="10 &amp;gt; Quantitat &amp;gt;= 5" style="rhombus;whiteSpace=wrap;html=1;" vertex="1" parent="1">
          <mxGeometry x="1360" y="1090" width="140" height="80" as="geometry" />
        </mxCell>
        <mxCell id="LKzhAQyQW1s74lqMFgUD-57" value="No" style="text;html=1;align=center;verticalAlign=middle;resizable=0;points=[];autosize=1;strokeColor=none;fillColor=none;" vertex="1" parent="1">
          <mxGeometry x="850" y="888" width="40" height="30" as="geometry" />
        </mxCell>
        <mxCell id="LKzhAQyQW1s74lqMFgUD-58" value="No" style="text;html=1;align=center;verticalAlign=middle;resizable=0;points=[];autosize=1;strokeColor=none;fillColor=none;" vertex="1" parent="1">
          <mxGeometry x="1050" y="958" width="40" height="30" as="geometry" />
        </mxCell>
        <mxCell id="LKzhAQyQW1s74lqMFgUD-59" value="No" style="text;html=1;align=center;verticalAlign=middle;resizable=0;points=[];autosize=1;strokeColor=none;fillColor=none;" vertex="1" parent="1">
          <mxGeometry x="1270" y="1028" width="40" height="30" as="geometry" />
        </mxCell>
        <mxCell id="LKzhAQyQW1s74lqMFgUD-63" style="edgeStyle=orthogonalEdgeStyle;rounded=0;orthogonalLoop=1;jettySize=auto;html=1;entryX=0.5;entryY=0;entryDx=0;entryDy=0;" edge="1" parent="1" source="LKzhAQyQW1s74lqMFgUD-60" target="LKzhAQyQW1s74lqMFgUD-61">
          <mxGeometry relative="1" as="geometry" />
        </mxCell>
        <mxCell id="LKzhAQyQW1s74lqMFgUD-60" value="Quantitat = Quantitat - 5" style="rounded=0;whiteSpace=wrap;html=1;" vertex="1" parent="1">
          <mxGeometry x="1356" y="1210" width="150" height="40" as="geometry" />
        </mxCell>
        <mxCell id="LKzhAQyQW1s74lqMFgUD-64" style="edgeStyle=orthogonalEdgeStyle;rounded=0;orthogonalLoop=1;jettySize=auto;html=1;entryX=0;entryY=0.5;entryDx=0;entryDy=0;" edge="1" parent="1" source="LKzhAQyQW1s74lqMFgUD-61" target="LKzhAQyQW1s74lqMFgUD-55">
          <mxGeometry relative="1" as="geometry">
            <Array as="points">
              <mxPoint x="1430" y="1360" />
              <mxPoint x="1330" y="1360" />
              <mxPoint x="1330" y="1130" />
            </Array>
          </mxGeometry>
        </mxCell>
        <mxCell id="LKzhAQyQW1s74lqMFgUD-61" value="Cont5 = Cont5 + 1" style="rounded=0;whiteSpace=wrap;html=1;" vertex="1" parent="1">
          <mxGeometry x="1362.5" y="1300" width="135" height="40" as="geometry" />
        </mxCell>
        <mxCell id="LKzhAQyQW1s74lqMFgUD-69" style="edgeStyle=orthogonalEdgeStyle;rounded=0;orthogonalLoop=1;jettySize=auto;html=1;entryX=0.5;entryY=0;entryDx=0;entryDy=0;" edge="1" parent="1" source="LKzhAQyQW1s74lqMFgUD-65" target="LKzhAQyQW1s74lqMFgUD-68">
          <mxGeometry relative="1" as="geometry" />
        </mxCell>
        <mxCell id="LKzhAQyQW1s74lqMFgUD-65" value="Imprimix&lt;br&gt;&quot;Per a aconseguir la quantitat: &quot; + Quantitat + &quot;necesites: &quot;&lt;br&gt;Cont500 + &quot;Bitllets de 500&quot;&lt;br&gt;Cont200 + &quot;Bitllets de 200&quot;&lt;br&gt;Cont100 + &quot;Bitllets de 100&quot;&lt;br&gt;Cont50 + &quot;Bitllets de 50&quot;&lt;br&gt;Cont20 + &quot;Bittets de 20&quot;&lt;br&gt;Cont10 + &quot;Bitllets de 10&quot;&lt;br&gt;Cont5 + &quot;Bitllets de 5&quot;" style="shape=parallelogram;perimeter=parallelogramPerimeter;whiteSpace=wrap;html=1;fixedSize=1;" vertex="1" parent="1">
          <mxGeometry x="1570" y="1170" width="300" height="150" as="geometry" />
        </mxCell>
        <mxCell id="LKzhAQyQW1s74lqMFgUD-67" value="No" style="text;html=1;align=center;verticalAlign=middle;resizable=0;points=[];autosize=1;strokeColor=none;fillColor=none;" vertex="1" parent="1">
          <mxGeometry x="1500" y="1098" width="40" height="30" as="geometry" />
        </mxCell>
        <mxCell id="LKzhAQyQW1s74lqMFgUD-68" value="Fi" style="rounded=1;whiteSpace=wrap;html=1;" vertex="1" parent="1">
          <mxGeometry x="1670" y="1360" width="100" height="30" as="geometry" />
        </mxCell>
        <mxCell id="LKzhAQyQW1s74lqMFgUD-70" value="No" style="text;html=1;align=center;verticalAlign=middle;resizable=0;points=[];autosize=1;strokeColor=none;fillColor=none;" vertex="1" parent="1">
          <mxGeometry x="90" y="608" width="40" height="30" as="geometry" />
        </mxCell>
      </root>
    </mxGraphModel>
  </diagram>
</mxfile>
